<?xml version="1.0" encoding="UTF-8"?>
<svg width="375px" height="640px" viewBox="0 0 375 640" version="1.1" xmlns="http://www.w3.org/2000/svg" xmlns:xlink="http://www.w3.org/1999/xlink" style="background: #FAFAFA;">
    <!-- Generator: Sketch 49.2 (51160) - http://www.bohemiancoding.com/sketch -->
    <title>scholarships, tiles, recommended</title>
    <desc>Created with Sketch.</desc>
    <defs>
        <rect id="path-1" x="0" y="0" width="375" height="65"></rect>
        <filter x="-0.5%" y="-1.5%" width="101.1%" height="106.2%" filterUnits="objectBoundingBox" id="filter-2">
            <feOffset dx="0" dy="1" in="SourceAlpha" result="shadowOffsetOuter1"></feOffset>
            <feGaussianBlur stdDeviation="0.5" in="shadowOffsetOuter1" result="shadowBlurOuter1"></feGaussianBlur>
            <feColorMatrix values="0 0 0 0 0.552941176   0 0 0 0 0.552941176   0 0 0 0 0.560784314  0 0 0 0.5 0" type="matrix" in="shadowBlurOuter1"></feColorMatrix>
        </filter>
        <rect id="path-3" x="0" y="0" width="375" height="49"></rect>
        <filter x="-0.5%" y="-6.1%" width="101.1%" height="108.2%" filterUnits="objectBoundingBox" id="filter-4">
            <feOffset dx="0" dy="-1" in="SourceAlpha" result="shadowOffsetOuter1"></feOffset>
            <feGaussianBlur stdDeviation="0.5" in="shadowOffsetOuter1" result="shadowBlurOuter1"></feGaussianBlur>
            <feColorMatrix values="0 0 0 0 0.552941176   0 0 0 0 0.552941176   0 0 0 0 0.560784314  0 0 0 0.5 0" type="matrix" in="shadowBlurOuter1"></feColorMatrix>
        </filter>
        <rect id="path-5" x="0" y="0" width="373" height="124"></rect>
        <filter x="-0.9%" y="-2.0%" width="101.9%" height="105.6%" filterUnits="objectBoundingBox" id="filter-6">
            <feOffset dx="0" dy="1" in="SourceAlpha" result="shadowOffsetOuter1"></feOffset>
            <feGaussianBlur stdDeviation="1" in="shadowOffsetOuter1" result="shadowBlurOuter1"></feGaussianBlur>
            <feColorMatrix values="0 0 0 0 0.552941176   0 0 0 0 0.552941176   0 0 0 0 0.560784314  0 0 0 0.5 0" type="matrix" in="shadowBlurOuter1"></feColorMatrix>
        </filter>
        <circle id="path-7" cx="18.8715789" cy="19.0463158" r="18.7842105"></circle>
        <rect id="path-9" x="0" y="0" width="373" height="124"></rect>
        <filter x="-0.9%" y="-2.0%" width="101.9%" height="105.6%" filterUnits="objectBoundingBox" id="filter-10">
            <feOffset dx="0" dy="1" in="SourceAlpha" result="shadowOffsetOuter1"></feOffset>
            <feGaussianBlur stdDeviation="1" in="shadowOffsetOuter1" result="shadowBlurOuter1"></feGaussianBlur>
            <feColorMatrix values="0 0 0 0 0.552941176   0 0 0 0 0.552941176   0 0 0 0 0.560784314  0 0 0 0.5 0" type="matrix" in="shadowBlurOuter1"></feColorMatrix>
        </filter>
        <rect id="path-11" x="0" y="0" width="373" height="124"></rect>
        <filter x="-0.9%" y="-2.0%" width="101.9%" height="105.6%" filterUnits="objectBoundingBox" id="filter-12">
            <feOffset dx="0" dy="1" in="SourceAlpha" result="shadowOffsetOuter1"></feOffset>
            <feGaussianBlur stdDeviation="1" in="shadowOffsetOuter1" result="shadowBlurOuter1"></feGaussianBlur>
            <feColorMatrix values="0 0 0 0 0.552941176   0 0 0 0 0.552941176   0 0 0 0 0.560784314  0 0 0 0.5 0" type="matrix" in="shadowBlurOuter1"></feColorMatrix>
        </filter>
        <rect id="path-13" x="0" y="0" width="185" height="124"></rect>
        <filter x="-1.9%" y="-2.0%" width="103.8%" height="105.6%" filterUnits="objectBoundingBox" id="filter-14">
            <feOffset dx="0" dy="1" in="SourceAlpha" result="shadowOffsetOuter1"></feOffset>
            <feGaussianBlur stdDeviation="1" in="shadowOffsetOuter1" result="shadowBlurOuter1"></feGaussianBlur>
            <feColorMatrix values="0 0 0 0 0.552941176   0 0 0 0 0.552941176   0 0 0 0 0.560784314  0 0 0 0.5 0" type="matrix" in="shadowBlurOuter1"></feColorMatrix>
        </filter>
        <rect id="path-15" x="0" y="0" width="186" height="124"></rect>
        <filter x="-1.9%" y="-2.0%" width="103.8%" height="105.6%" filterUnits="objectBoundingBox" id="filter-16">
            <feOffset dx="0" dy="1" in="SourceAlpha" result="shadowOffsetOuter1"></feOffset>
            <feGaussianBlur stdDeviation="1" in="shadowOffsetOuter1" result="shadowBlurOuter1"></feGaussianBlur>
            <feColorMatrix values="0 0 0 0 0.552941176   0 0 0 0 0.552941176   0 0 0 0 0.560784314  0 0 0 0.5 0" type="matrix" in="shadowBlurOuter1"></feColorMatrix>
        </filter>
    </defs>
    <g id="scholarships,-tiles,-recommended" stroke="none" stroke-width="1" fill="none" fill-rule="evenodd">
        <g id="top-bar/navigation-bar">
            <g id="Navigation-Bar">
                <g id="Rectangle">
                    <use fill="black" fill-opacity="1" filter="url(#filter-2)" xlink:href="#path-1"></use>
                    <use fill="#FAFAFA" fill-rule="evenodd" xlink:href="#path-1"></use>
                </g>
                <g id="status-bar/black/100%" fill="#030303">
                    <path d="M346.493713,6.175 L366.006287,6.175 C366.82662,6.175 367.5,6.84222789 367.5,7.6652952 L367.5,13.7097048 C367.5,14.5216582 366.831242,15.2 366.006287,15.2 L346.493713,15.2 C345.67338,15.2 345,14.5327721 345,13.7097048 L345,7.6652952 C345,6.85334183 345.668758,6.175 346.493713,6.175 Z M368,9.025 L368.75,9.025 C369.167101,9.025 369.5,9.36279846 369.5,9.77949397 L369.5,11.595506 C369.5,12.0190303 369.164214,12.35 368.75,12.35 L368,12.35 L368,9.025 Z M346.508152,6.65 C345.951365,6.65 345.5,7.10728352 345.5,7.6401535 L345.5,13.7348465 C345.5,14.2816932 345.949058,14.725 346.508152,14.725 L365.991848,14.725 C366.548635,14.725 367,14.2677165 367,13.7348465 L367,7.6401535 C367,7.09330682 366.550942,6.65 365.991848,6.65 L346.508152,6.65 Z M346.506744,7.125 L365.993256,7.125 C366.269775,7.125 366.5,7.34931258 366.5,7.62601616 L366.5,13.7489838 C366.5,14.0289499 366.273123,14.25 365.993256,14.25 L346.506744,14.25 C346.230225,14.25 346,14.0256874 346,13.7489838 L346,7.62601616 C346,7.3460501 346.226877,7.125 346.506744,7.125 Z" id="Battery" fill-rule="evenodd"></path>
                    <text id="100%" font-family="Roboto-Regular, Roboto" font-size="12" font-weight="normal">
                        <tspan x="312.943359" y="15.375">100%</tspan>
                    </text>
                    <text id="9:41-AM" font-family="Roboto-Regular, Roboto" font-size="12" font-weight="normal">
                        <tspan x="165.205078" y="14.975">9:41 AM</tspan>
                    </text>
                    <path d="M54.1444208,12.7665791 L52.0225391,14.725 L49.8601652,12.7350518 C50.3778594,12.1898624 51.1390073,11.8454663 51.987563,11.8454663 C52.8523616,11.8454663 53.626374,12.2031733 54.1444208,12.7665791 Z M56.3234964,10.7553703 L55.2346215,11.7603628 C54.4356305,10.9423233 53.2768836,10.4278497 51.987563,10.4278497 C50.713648,10.4278497 49.567205,10.9301023 48.7692987,11.73117 L47.6792698,10.7280589 C48.7566264,9.67077099 50.2882723,9.01023316 51.987563,9.01023316 C53.7014387,9.01023316 55.2447794,9.68215835 56.3234964,10.7553703 Z M58.5,8.74653536 L57.4118698,9.75084059 C56.0538809,8.42224978 54.1260026,7.59261658 51.987563,7.59261658 C49.8628921,7.59261658 47.9460798,8.41160072 46.5895579,9.72523969 L45.5,8.7225621 C47.1355496,7.15250825 49.4375103,6.175 51.987563,6.175 C54.5505699,6.175 56.8629578,7.16246488 58.5,8.74653536 Z" id="Wi-Fi" fill-rule="evenodd"></path>
                    <path d="M9.25,13.3 C7.73121694,13.3 6.5,12.1303439 6.5,10.6875 C6.5,9.24465609 7.73121694,8.075 9.25,8.075 C10.7687831,8.075 12,9.24465609 12,10.6875 C12,12.1303439 10.7687831,13.3 9.25,13.3 Z M16.25,13.3 C14.7312169,13.3 13.5,12.1303439 13.5,10.6875 C13.5,9.24465609 14.7312169,8.075 16.25,8.075 C17.7687831,8.075 19,9.24465609 19,10.6875 C19,12.1303439 17.7687831,13.3 16.25,13.3 Z M23.25,13.3 C21.7312169,13.3 20.5,12.1303439 20.5,10.6875 C20.5,9.24465609 21.7312169,8.075 23.25,8.075 C24.7687831,8.075 26,9.24465609 26,10.6875 C26,12.1303439 24.7687831,13.3 23.25,13.3 Z M30.25,13.3 C28.7312169,13.3 27.5,12.1303439 27.5,10.6875 C27.5,9.24465609 28.7312169,8.075 30.25,8.075 C31.7687831,8.075 33,9.24465609 33,10.6875 C33,12.1303439 31.7687831,13.3 30.25,13.3 Z M37.25,13.3 C35.7312169,13.3 34.5,12.1303439 34.5,10.6875 C34.5,9.24465609 35.7312169,8.075 37.25,8.075 C38.7687831,8.075 40,9.24465609 40,10.6875 C40,12.1303439 38.7687831,13.3 37.25,13.3 Z" id="Mobile-Signal" fill-rule="evenodd"></path>
                </g>
                <g id="ic_messaging" transform="translate(345.000000, 36.830769)" fill="#000000">
                    <g id="messaging">
                        <path d="M19,3.87692308 L17,3.87692308 L17,12.6 L4,12.6 L4,14.5384615 C4,15.12 4.4,15.5076923 5,15.5076923 L16,15.5076923 L20,19.3846154 L20,4.84615385 C20,4.26461538 19.6,3.87692308 19,3.87692308 L19,3.87692308 Z M15,9.69230769 L15,0.969230769 C15,0.387692308 14.6,0 14,0 L1,0 C0.4,0 0,0.387692308 0,0.969230769 L0,14.5384615 L4,10.6615385 L14,10.6615385 C14.6,10.6615385 15,10.2738462 15,9.69230769 L15,9.69230769 Z" id="Shape"></path>
                    </g>
                </g>
                <g id="ic_notifications" transform="translate(10.000000, 34.892308)" fill="#000000">
                    <path d="M8.5,19.3846154 C9.605,19.3846154 10.5,18.5171534 10.5,17.4461538 L6.5,17.4461538 C6.5,18.5171534 7.395,19.3846154 8.5,19.3846154 Z M15,13.5692308 L15,8.23846154 C15,5.25807692 12.865,2.772 10,2.11292308 L10,1.45384615 C10,0.649384615 9.33,0 8.5,0 C7.67,0 7,0.649384615 7,1.45384615 L7,2.11292308 C4.135,2.772 2,5.25807692 2,8.23846154 L2,13.5692308 L0,15.5076923 L0,16.4769231 L17,16.4769231 L17,15.5076923 L15,13.5692308 Z" id="Shape"></path>
                </g>
            </g>
        </g>
        <g id="pagination/scholarships" transform="translate(138.000000, 31.000000)" fill="#000000" font-family="Roboto-Regular, Roboto" font-size="16" font-weight="normal">
            <text id="Scholarships">
                <tspan x="3.0390625" y="19">Scholarships</tspan>
            </text>
        </g>
        <g id="bottom-bar/tab-bar/scholarships" transform="translate(0.000000, 591.000000)">
            <g id="bottom-bar,-tab-bar">
                <g id="Bar">
                    <use fill="black" fill-opacity="1" filter="url(#filter-4)" xlink:href="#path-3"></use>
                    <use fill="#FAFAFA" fill-rule="evenodd" xlink:href="#path-3"></use>
                </g>
                <g id="ic_colleges" transform="translate(134.000000, 15.000000)" fill="#000000" fill-rule="nonzero">
                    <path d="M1.9047619,8.57142857 L1.9047619,15.2380952 L4.76190476,15.2380952 L4.76190476,8.57142857 L1.9047619,8.57142857 Z M7.61904762,8.57142857 L7.61904762,15.2380952 L10.4761905,15.2380952 L10.4761905,8.57142857 L7.61904762,8.57142857 Z M-2.84217094e-14,20 L18.0952381,20 L18.0952381,17.1428571 L-2.84217094e-14,17.1428571 L-2.84217094e-14,20 Z M13.3333333,8.57142857 L13.3333333,15.2380952 L16.1904762,15.2380952 L16.1904762,8.57142857 L13.3333333,8.57142857 Z M9.04761905,0 L-2.84217094e-14,4.76190476 L-2.84217094e-14,6.66666667 L18.0952381,6.66666667 L18.0952381,4.76190476 L9.04761905,0 Z" id="Shape"></path>
                </g>
                <g id="ic_profile" transform="translate(332.000000, 15.000000)" fill="#000000">
                    <path d="M10,0 C4.5,0 0,4.5 0,10 C0,15.5 4.5,20 10,20 C15.5,20 20,15.5 20,10 C20,4.5 15.5,0 10,0 L10,0 Z M10,3 C11.7,3 13,4.3 13,6 C13,7.7 11.7,9 10,9 C8.3,9 7,7.7 7,6 C7,4.3 8.3,3 10,3 L10,3 Z M10,17.2 C7.5,17.2 5.3,15.9 4,14 C4,12 8,10.9 10,10.9 C12,10.9 16,12 16,14 C14.7,15.9 12.5,17.2 10,17.2 L10,17.2 Z" id="Shape"></path>
                </g>
                <g id="ic_monetization_on_black_48px" transform="translate(233.000000, 15.000000)" fill="#3692CC" fill-rule="nonzero">
                    <path d="M10,0 C4.48,0 0,4.48 0,10 C0,15.52 4.48,20 10,20 C15.52,20 20,15.52 20,10 C20,4.48 15.52,0 10,0 Z M11.41,16.09 L11.41,18 L8.74,18 L8.74,16.07 C7.03,15.71 5.58,14.61 5.47,12.67 L7.43,12.67 C7.53,13.72 8.25,14.54 10.08,14.54 C12.04,14.54 12.48,13.56 12.48,12.95 C12.48,12.12 12.04,11.34 9.81,10.81 C7.33,10.21 5.63,9.19 5.63,7.14 C5.63,5.42 7.02,4.3 8.74,3.93 L8.74,2 L11.41,2 L11.41,3.95 C13.27,4.4 14.2,5.81 14.26,7.34 L12.3,7.34 C12.25,6.23 11.66,5.47 10.08,5.47 C8.58,5.47 7.68,6.15 7.68,7.11 C7.68,7.95 8.33,8.5 10.35,9.02 C12.37,9.54 14.53,10.41 14.53,12.93 C14.52,14.76 13.15,15.76 11.41,16.09 Z" id="Shape"></path>
                </g>
                <g id="ic_tasks" transform="translate(29.000000, 15.000000)" fill="#000000" fill-rule="nonzero">
                    <path d="M16,2 L11.815,2 C11.405,0.84 10.305,0 9,0 C7.695,0 6.595,0.84 6.185,2 L2,2 C0.895,2 5.68434189e-14,2.895 5.68434189e-14,4 L5.68434189e-14,18 C5.68434189e-14,19.105 0.895,20 2,20 L16,20 C17.105,20 18,19.105 18,18 L18,4 C18,2.895 17.105,2 16,2 L16,2 Z M9,2 C9.55,2 10,2.445 10,3 C10,3.555 9.55,4 9,4 C8.45,4 8,3.555 8,3 C8,2.445 8.45,2 9,2 Z M11,16 L4,16 L4,14 L11,14 L11,16 Z M14,12 L4,12 L4,10 L14,10 L14,12 Z M14,8 L4,8 L4,6 L14,6 L14,8 Z" id="Shape"></path>
                </g>
            </g>
        </g>
        <g id="Tiles" transform="translate(1.000000, 67.000000)">
            <g id="Row-4" transform="translate(0.000000, 126.000000)">
                <g id="box">
                    <use fill="black" fill-opacity="1" filter="url(#filter-6)" xlink:href="#path-5"></use>
                    <use fill="#FFFFFF" fill-rule="evenodd" xlink:href="#path-5"></use>
                </g>
                <text id="Search-All-Scholarsh" font-family="Roboto-Regular, Roboto" font-size="14" font-weight="normal" fill="#000000">
                    <tspan x="112.361816" y="115">Search All Scholarships</tspan>
                </text>
                <g id="Group-5" transform="translate(145.000000, 12.000000)">
                    <g id="Group-4">
                        <g id="Group-3" transform="translate(6.640000, 23.240000)" fill="#3692CC" fill-opacity="0.5">
                            <path d="M2,44.2655281 L34.4334705,44.2655281 C35.53804,44.2655281 36.4334705,43.3700976 36.4334705,42.2655281 L36.4334922,15.7901688 C36.4334922,15.6777071 36.4145221,15.5660509 36.3773802,15.4598995 C32.8983649,5.5168755 26.8448166,0.545363512 18.2167353,0.545363512 C9.58869179,0.545363512 3.53515873,5.51683188 0.0561360701,15.4597686 L0.0561132504,15.4597606 C0.0189705484,15.5659133 -1.37727686e-17,15.6775708 0,15.790034 L0,42.2655281 C4.05948992e-15,43.3700976 0.8954305,44.2655281 2,44.2655281 Z" id="Path-2"></path>
                        </g>
                        <path d="M16.1002513,28.9143561 C17.6421795,31.5522319 19.0998875,32.6732107 22.3985737,33.1180505 C22.7876692,33.1705215 23.1456296,32.8976333 23.1981005,32.5085377 C23.2505715,32.1194422 22.9776833,31.7614818 22.5885878,31.7090109 C19.7632675,31.3280062 18.663746,30.4824731 17.327725,28.196856 C17.1295928,27.8578985 16.6941956,27.743737 16.3552381,27.9418692 C16.0162806,28.1400014 15.9021191,28.5753986 16.1002513,28.9143561 Z" id="Oval-6" fill="#000000" fill-rule="nonzero" transform="translate(19.603769, 30.484553) rotate(-255.000000) translate(-19.603769, -30.484553) "></path>
                        <g id="Group-3" transform="translate(8.300000, 12.450000)" fill="#000000" fill-rule="nonzero">
                            <path d="M5.40819627e-13,51.7355291 L-2.77342503e-05,27.8921265 C-2.77342504e-05,17.3728898 8.52749852,8.84536351 19.0467353,8.84536351 C29.565972,8.84536351 38.0934982,17.3728898 38.0934982,27.8921275 L38.0934705,51.7355281 C38.0934705,53.1107171 36.9786595,54.2255281 35.6034705,54.2255281 L2.49,54.2255281 C1.11481097,54.2255281 -2.5432974e-14,53.1107171 5.40819627e-13,51.7355291 Z M2.49,52.5655281 L35.6034705,52.5655281 C36.0618668,52.5655281 36.4334705,52.1939245 36.4334705,51.7355272 L36.4334982,27.8921265 C36.4334982,18.2896825 28.6491793,10.5053635 19.0467353,10.5053635 C9.44429121,10.5053635 1.65997227,18.2896825 1.65997227,27.8921255 L1.66,51.7355281 C1.66,52.1939245 2.03160366,52.5655281 2.49,52.5655281 Z" id="Path-2"></path>
                            <path d="M24.6700657,1.13503709 C25.49007,0.725034934 26.4871873,1.05740735 26.8971894,1.87741166 C27.1477544,2.37854155 27.1286223,2.97225387 26.8463133,3.45621213 L22.8497008,10.3075478 L21.4158279,9.47112185 L25.4124403,2.61978622 L21.73246,4.45977637 C21.3736807,4.63916605 20.9379492,4.53630381 20.6972727,4.21540181 L19.0467979,2.01476864 L17.396323,4.21540181 C17.1556465,4.53630381 16.719915,4.63916605 16.3611357,4.45977637 L12.6811554,2.61978622 L16.6777678,9.47112185 L15.2438949,10.3075478 L11.2472824,3.45621213 C10.7853372,2.66430595 11.0528233,1.64785852 11.8447295,1.18591325 C12.3286878,0.903604264 12.9224001,0.884472142 13.42353,1.13503709 L16.483942,2.66524311 L17.7187979,1.01876864 C18.2688735,0.285334494 19.3093637,0.136693031 20.0427979,0.686768642 C20.1686353,0.781146696 20.2804198,0.892931236 20.3747979,1.01876864 L21.6096537,2.66524311 L24.6700657,1.13503709 Z" id="Path-13"></path>
                        </g>
                        <g id="dots" transform="translate(26.560000, 0.000000)" fill="#000000">
                            <ellipse id="Oval-Copy" cx="0.69946116" cy="7.11188903" rx="1" ry="1"></ellipse>
                            <path d="M1.42582464,4.64039173 L1.42582464,1.08428053 C1.42582464,0.696393298 1.10865035,0.381948568 0.717396044,0.381948568 C0.326141735,0.381948568 0.00896745055,0.696393298 0.00896745055,1.08428053 L0.00896745055,4.64039173 C0.00896745055,5.02827896 0.326141735,5.34272369 0.717396044,5.34272369 C1.10865035,5.34272369 1.42582464,5.02827896 1.42582464,4.64039173 Z" id="Line" fill-rule="nonzero"></path>
                        </g>
                        <g id="dots" transform="translate(5.324489, 11.970370) rotate(-45.000000) translate(-5.324489, -11.970370) translate(4.595820, 7.962689)" fill="#000000">
                            <ellipse id="Oval-Copy" cx="0.69946116" cy="7.11188903" rx="1" ry="1"></ellipse>
                            <path d="M1.42582464,4.64039173 L1.42582464,1.08428053 C1.42582464,0.696393298 1.10865035,0.381948568 0.717396044,0.381948568 C0.326141735,0.381948568 0.00896745055,0.696393298 0.00896745055,1.08428053 L0.00896745055,4.64039173 C0.00896745055,5.02827896 0.326141735,5.34272369 0.717396044,5.34272369 C1.10865035,5.34272369 1.42582464,5.02827896 1.42582464,4.64039173 Z" id="Line" fill-rule="nonzero"></path>
                        </g>
                        <g id="dots" transform="translate(49.145985, 11.970370) rotate(-315.000000) translate(-49.145985, -11.970370) translate(48.417315, 7.962689)" fill="#000000">
                            <ellipse id="Oval-Copy" cx="0.69946116" cy="7.11188903" rx="1" ry="1"></ellipse>
                            <path d="M1.42582464,4.64039173 L1.42582464,1.08428053 C1.42582464,0.696393298 1.10865035,0.381948568 0.717396044,0.381948568 C0.326141735,0.381948568 0.00896745055,0.696393298 0.00896745055,1.08428053 L0.00896745055,4.64039173 C0.00896745055,5.02827896 0.326141735,5.34272369 0.717396044,5.34272369 C1.10865035,5.34272369 1.42582464,5.02827896 1.42582464,4.64039173 Z" id="Line" fill-rule="nonzero"></path>
                        </g>
                        <g id="dots" transform="translate(51.148937, 23.089236) rotate(-60.000000) translate(-51.148937, -23.089236) translate(47.505590, 20.903228)" fill="#000000">
                            <ellipse id="Oval-Copy" cx="0.69946116" cy="0.693441701" rx="1" ry="1"></ellipse>
                            <ellipse id="Oval-Copy-2" cx="3.56904533" cy="2.11588618" rx="1" ry="1"></ellipse>
                            <ellipse id="Oval-Copy-3" cx="6.43862951" cy="3.53833066" rx="1" ry="1"></ellipse>
                        </g>
                        <g id="dots" transform="translate(3.693466, 22.794985) rotate(-360.000000) translate(-3.693466, -22.794985) translate(0.050119, 20.608977)" fill="#000000">
                            <ellipse id="Oval-Copy" cx="0.69946116" cy="0.693441701" rx="1" ry="1"></ellipse>
                            <ellipse id="Oval-Copy-2" cx="3.56904533" cy="2.11588618" rx="1" ry="1"></ellipse>
                            <ellipse id="Oval-Copy-3" cx="6.43862951" cy="3.53833066" rx="1" ry="1"></ellipse>
                        </g>
                        <g id="Group" transform="translate(20.483580, 33.609877)" fill="#000000">
                            <path d="M6.49326445,10.3924198 L8.3131163,10.7613086 C12.1495607,11.5728642 14.2399311,12.8762716 14.2399311,16.4421975 C14.2399311,19.614642 11.8052645,22.0001235 7.40319038,22.0001235 C1.79607927,22.0001235 0.640227414,19.0981975 0.0500051916,17.1061975 C0.025412599,16.9832346 0.000820006382,16.8848642 0.000820006382,16.7864938 C0.000820006382,16.2454568 0.41889408,15.8765679 0.935338525,15.7536049 C1.08289408,15.7290123 1.20585704,15.7044198 1.3534126,15.7044198 C1.82067186,15.7044198 2.28793112,15.9257531 2.43548667,16.4421975 C2.87815334,18.0899012 3.6897089,19.9343457 7.28022741,19.9343457 C10.083783,19.9343457 11.829857,18.5817531 11.829857,16.4667901 C11.829857,14.4501975 10.7231904,13.5648642 7.82126445,12.974642 L5.85385704,12.5565679 C2.16496815,11.7941975 0.492671858,10.3924198 0.492671858,7.17079012 C0.492671858,4.5885679 2.41089408,2.08012346 7.03430149,2.08012346 C11.4609682,2.08012346 12.9857089,4.44101235 13.5267459,6.21167901 C13.5759311,6.33464198 13.6005237,6.45760494 13.6005237,6.5805679 C13.6005237,7.09701235 13.1824496,7.46590123 12.6905978,7.5642716 C12.5676348,7.5888642 12.4200793,7.61345679 12.2725237,7.61345679 C11.829857,7.61345679 11.3871904,7.41671605 11.1904496,6.9002716 C10.7969682,5.49849383 9.76407927,4.12130864 7.03430149,4.12130864 C4.18156075,4.12130864 2.87815334,5.54767901 2.87815334,7.17079012 C2.87815334,8.94145679 3.73889408,9.85138272 6.49326445,10.3924198 Z" id="S"></path>
                            <path d="M6.07641975,0.838383838 C6.07641975,0.37535723 6.44343571,0 6.89617284,0 C7.34890997,0 7.71592593,0.37535723 7.71592593,0.838383838 L7.71592593,23.1952862 C7.71592593,23.6583128 7.34890997,24.03367 6.89617284,24.03367 C6.44343571,24.03367 6.07641975,23.6583128 6.07641975,23.1952862 L6.07641975,0.838383838 Z" id="Path-14" fill-rule="nonzero"></path>
                        </g>
                        <g id="Group-2" transform="translate(14.472058, 5.829355) rotate(-30.000000) translate(-14.472058, -5.829355) translate(13.014719, 2.914678)" fill="#000000">
                            <ellipse id="Oval-14" cx="1.48572854" cy="4.9628295" rx="1" ry="1"></ellipse>
                            <ellipse id="Oval-14-Copy" cx="1.48572854" cy="1.02407593" rx="1" ry="1"></ellipse>
                        </g>
                        <g id="Group-2" transform="translate(40.076818, 5.829355) rotate(-330.000000) translate(-40.076818, -5.829355) translate(38.619479, 2.914678)" fill="#000000">
                            <ellipse id="Oval-14" cx="1.48572854" cy="4.9628295" rx="1" ry="1"></ellipse>
                            <ellipse id="Oval-14-Copy" cx="1.48572854" cy="1.02407593" rx="1" ry="1"></ellipse>
                        </g>
                    </g>
                    <g id="empty-search-filled" transform="translate(14.110000, 14.110000)">
                        <path d="M34.8186945,49.5427959 L66.1257136,49.5427959 C67.959299,49.5427959 69.4457136,51.0292106 69.4457136,52.8627959 L69.4457136,52.8627959 C69.4457136,54.6963813 67.959299,56.1827959 66.1257136,56.1827959 L34.8186945,56.1827959 L34.8186945,49.5427959 Z" id="Rectangle-51" fill="#FFFFFF" transform="translate(52.132204, 52.862796) rotate(-315.000000) translate(-52.132204, -52.862796) "></path>
                        <circle id="Oval-33" fill="#FFFFFF" cx="24.07" cy="24.07" r="23.24"></circle>
                        <circle id="Oval-7" fill-opacity="0.25" fill="#3692CC" cx="21.3615789" cy="24.8563158" r="18.7842105"></circle>
                        <path d="M23.9826316,43.5968421 C13.1500022,43.5968421 4.36842105,34.8152609 4.36842105,23.9826316 C4.36842105,13.1500022 13.1500022,4.36842105 23.9826316,4.36842105 C34.8152609,4.36842105 43.5968421,13.1500022 43.5968421,23.9826316 C43.5968421,34.8152609 34.8152609,43.5968421 23.9826316,43.5968421 Z M23.9826316,41.9368421 C33.8984682,41.9368421 41.9368421,33.8984682 41.9368421,23.9826316 C41.9368421,14.0667949 33.8984682,6.02842105 23.9826316,6.02842105 C14.0667949,6.02842105 6.02842105,14.0667949 6.02842105,23.9826316 C6.02842105,33.8984682 14.0667949,41.9368421 23.9826316,41.9368421 Z" id="Oval-7" fill="#000000" fill-rule="nonzero"></path>
                        <path d="M23.9826316,47.9652632 C10.7373899,47.9652632 0,37.2278733 0,23.9826316 C0,10.7373899 10.7373899,0 23.9826316,0 C37.2278733,0 47.9652632,10.7373899 47.9652632,23.9826316 C47.9652632,37.2278733 37.2278733,47.9652632 23.9826316,47.9652632 Z M23.9826316,46.3052632 C36.3110806,46.3052632 46.3052632,36.3110806 46.3052632,23.9826316 C46.3052632,11.6541826 36.3110806,1.66 23.9826316,1.66 C11.6541826,1.66 1.66,11.6541826 1.66,23.9826316 C1.66,36.3110806 11.6541826,46.3052632 23.9826316,46.3052632 Z" id="Oval-7" fill="#000000" fill-rule="nonzero"></path>
                        <path d="M54.227461,35.262004 L54.227461,66.9970851 C54.227461,68.1392304 53.2364339,69.083755 51.9995662,69.083755 C50.7642977,69.083755 49.7716715,68.1349059 49.7716715,66.9970851 L49.7716715,35.262004 L48.1116715,35.262004 L48.1116715,66.9970851 C48.1116715,69.0688653 49.8638357,70.743755 51.9995662,70.743755 C54.1358567,70.743755 55.887461,69.0743421 55.887461,66.9970851 L55.887461,35.262004 L54.227461,35.262004 Z" id="Rectangle-14" fill="#000000" fill-rule="nonzero" transform="translate(51.999566, 53.002879) rotate(-45.000000) translate(-51.999566, -53.002879) "></path>
                        <polygon id="Line" fill="#000000" fill-rule="nonzero" points="50.8889671 56.5640404 55.7694926 51.683515 54.5956953 50.5097177 49.7151699 55.3902432"></polygon>
                    </g>
                    <path d="M38.0926316,57.7068421 C27.2600022,57.7068421 18.4784211,48.9252609 18.4784211,38.0926316 C18.4784211,27.2600022 27.2600022,18.4784211 38.0926316,18.4784211 C48.9252609,18.4784211 57.7068421,27.2600022 57.7068421,38.0926316 C57.7068421,48.9252609 48.9252609,57.7068421 38.0926316,57.7068421 Z M38.0926316,56.0468421 C48.0084682,56.0468421 56.0468421,48.0084682 56.0468421,38.0926316 C56.0468421,28.1767949 48.0084682,20.1384211 38.0926316,20.1384211 C28.1767949,20.1384211 20.1384211,28.1767949 20.1384211,38.0926316 C20.1384211,48.0084682 28.1767949,56.0468421 38.0926316,56.0468421 Z" id="Oval-7" fill="#000000" fill-rule="nonzero"></path>
                    <g id="Group" transform="translate(19.090000, 19.090000)">
                        <mask id="mask-8" fill="white">
                            <use xlink:href="#path-7"></use>
                        </mask>
                        <g id="Mask"></g>
                        <g mask="url(#mask-8)" fill="#000000">
                            <g transform="translate(1.660000, 8.300000)">
                                <path d="M8.95622683,14.3343721 L11.4663673,14.8431843 C16.7580148,15.9625713 19.6412843,17.7603746 19.6412843,22.6788931 C19.6412843,27.0546786 16.2831234,30.3449979 10.2112971,30.3449979 C2.47735071,30.3449979 0.883072295,26.3423414 0.068972678,23.5947552 C0.0350518607,23.4251511 0.00113104329,23.2894679 0.00113104329,23.1537846 C0.00113104329,22.4075266 0.577784939,21.8987143 1.2901221,21.7291103 C1.49364701,21.6951894 1.66325109,21.6612686 1.866776,21.6612686 C2.51127153,21.6612686 3.15576706,21.966556 3.35929196,22.6788931 C3.96986668,24.9515879 5.08925365,27.4956492 10.041693,27.4956492 C13.9086662,27.4956492 16.3170442,25.6300043 16.3170442,22.712814 C16.3170442,19.9313069 14.7906074,18.7101575 10.787951,17.8960579 L8.07428558,17.319404 C2.98616297,16.2678587 0.679547391,14.3343721 0.679547391,9.890745 C0.679547391,6.32905917 3.32537115,2.8691358 9.70248481,2.8691358 C15.8082319,2.8691358 17.9113226,6.12553427 18.6575806,8.56783312 C18.7254222,8.73743721 18.759343,8.90704129 18.759343,9.07664538 C18.759343,9.78898255 18.1826892,10.2977948 17.5042728,10.4334781 C17.3346687,10.4673989 17.1311438,10.5013197 16.9276189,10.5013197 C16.3170442,10.5013197 15.7064695,10.2299532 15.4351029,9.51761601 C14.8923699,7.58412942 13.4676955,5.68456364 9.70248481,5.68456364 C5.76767,5.68456364 3.96986668,7.65197105 3.96986668,9.890745 C3.96986668,12.3330438 5.15709528,13.5881141 8.95622683,14.3343721 Z" id="S" fill-rule="evenodd"></path>
                                <path d="M8.38126862,1.1563915 C8.38126862,0.51773411 8.88749753,0 9.51196254,0 C10.1364275,0 10.6426564,0.51773411 10.6426564,1.1563915 L10.6426564,31.9934982 C10.6426564,32.6321556 10.1364275,33.1498897 9.51196254,33.1498897 C8.88749753,33.1498897 8.38126862,32.6321556 8.38126862,31.9934982 L8.38126862,1.1563915 Z" id="Path-14" fill-rule="nonzero"></path>
                            </g>
                        </g>
                        <path d="M-14.9399922,52.1374301 L-14.9400277,21.6108398 C-14.9400277,8.14311314 -4.0222781,-2.77463649 9.44544859,-2.77463649 C22.9131753,-2.77463649 33.8309249,8.14311314 33.8309249,21.6108411 L33.8308894,52.1374288 C33.8308894,53.8980765 32.4036024,55.3253635 30.6429547,55.3253635 L-11.7520576,55.3253635 C-13.5127053,55.3253635 -14.9399922,53.8980765 -14.9399922,52.1374301 Z M-11.7520576,53.2000737 L30.6429547,53.2000737 C31.2298373,53.2000737 31.7055996,52.7243114 31.7055996,52.1374276 L31.7056351,21.6108398 C31.7056351,9.31687828 21.7394101,-0.64934671 9.44544859,-0.64934671 C-2.84851297,-0.64934671 -12.814738,9.31687828 -12.814738,21.6108386 L-12.8147024,52.1374288 C-12.8147024,52.7243114 -12.3389401,53.2000737 -11.7520576,53.2000737 Z" id="Path-2" fill="#000000" fill-rule="nonzero" mask="url(#mask-8)"></path>
                    </g>
                </g>
            </g>
            <g id="Row-3" transform="translate(0.000000, 252.000000)">
                <g id="Create-My-Own">
                    <g id="box">
                        <use fill="black" fill-opacity="1" filter="url(#filter-10)" xlink:href="#path-9"></use>
                        <use fill="#3692CC" fill-rule="evenodd" xlink:href="#path-9"></use>
                    </g>
                    <text id="Create-Your-Own-List" font-family="Roboto-Bold, Roboto" font-size="14" font-weight="bold" fill="#FFFFFF">
                        <tspan x="118.465332" y="115">Create Your Own List!</tspan>
                    </text>
                    <g id="Group" transform="translate(140.000000, 15.000000)">
                        <g id="extra">
                            <path d="M93.7142857,48 L93.7142857,73.5905933 C93.7142857,77.1304109 90.5962437,80 86.7661301,80 L6.94815559,80 C3.11079522,80 0,77.1314925 0,73.5905933 L0,48" id="Rectangle-11" stroke="#FAFAFA" stroke-width="2" stroke-linecap="round" stroke-linejoin="round"></path>
                            <circle id="Oval-Copy" fill="#FAFAFA" cx="51.4285714" cy="5.71428571" r="1.14285714"></circle>
                            <circle id="Oval-Copy" fill="#FAFAFA" cx="43.4285714" cy="13.7142857" r="1.14285714"></circle>
                            <circle id="Oval-Copy" fill="#FAFAFA" cx="40" cy="1.14285714" r="1.14285714"></circle>
                            <circle id="Oval-Copy" fill="#FAFAFA" cx="80" cy="2.28571429" r="1.14285714"></circle>
                            <circle id="Oval-Copy" fill="#FAFAFA" cx="20.5714286" cy="11.4285714" r="1.14285714"></circle>
                            <circle id="Oval-Copy" fill="#FAFAFA" cx="72" cy="11.4285714" r="2.28571429"></circle>
                            <circle id="Oval-Copy" fill="#FAFAFA" cx="13.7142857" cy="3.42857143" r="2.28571429"></circle>
                        </g>
                        <g id="3" transform="translate(64.000000, 19.428571)">
                            <path d="M21.7142857,6.85714286 L21.7142857,44.5725003 C21.7142857,49.6216649 17.6106145,53.7148216 12.5714286,53.7148216 C7.521968,53.7148216 3.42857143,49.6113125 3.42857143,44.5725003 L3.42857143,6.85714286" id="Rectangle-12-Copy-2" stroke="#FAFAFA" stroke-width="2"></path>
                            <rect id="Rectangle-13-Copy-2" stroke="#FAFAFA" stroke-width="2" x="-1.42108547e-14" y="0" width="25.1428571" height="6.85714286" rx="2"></rect>
                            <path d="M4.57142857,26.2857143 L21.7142857,26.2857143" id="Line" stroke="#FAFAFA" stroke-width="2" stroke-linecap="square"></path>
                            <circle id="Oval-Copy" fill="#FAFAFA" cx="13.7142857" cy="44.5714286" r="1.14285714"></circle>
                            <circle id="Oval-Copy" fill="#FAFAFA" cx="10.2857143" cy="33.1428571" r="1.14285714"></circle>
                        </g>
                        <g id="2" transform="translate(34.285714, 19.428571)">
                            <path d="M21.7142857,6.85714286 L21.7142857,44.5725003 C21.7142857,49.6216649 17.6106145,53.7148216 12.5714286,53.7148216 C7.521968,53.7148216 3.42857143,49.6113125 3.42857143,44.5725003 L3.42857143,6.85714286" id="Rectangle-12" stroke="#FAFAFA" stroke-width="2"></path>
                            <rect id="Rectangle-13" stroke="#FAFAFA" stroke-width="2" x="4.26325641e-14" y="0" width="25.1428571" height="6.85714286" rx="2"></rect>
                            <circle id="Oval-Copy" fill="#FAFAFA" cx="14.8571429" cy="24" r="1.14285714"></circle>
                            <circle id="Oval-Copy" fill="#FAFAFA" cx="14.8571429" cy="44.5714286" r="1.14285714"></circle>
                            <circle id="Oval-Copy" fill="#FAFAFA" cx="9.14285714" cy="34.2857143" r="1.14285714"></circle>
                            <path d="M4.57142857,17.1428571 L21.7142857,17.1428571" id="Line" stroke="#FAFAFA" stroke-width="2" stroke-linecap="square"></path>
                        </g>
                        <g id="1" transform="translate(4.571429, 19.428571)">
                            <path d="M21.7142857,6.85714286 L21.7142857,44.5725003 C21.7142857,49.6216649 17.6106145,53.7148216 12.5714286,53.7148216 C7.521968,53.7148216 3.42857143,49.6113125 3.42857143,44.5725003 L3.42857143,6.85714286" id="Rectangle-12" stroke="#FAFAFA" stroke-width="2"></path>
                            <circle id="Oval" fill="#FAFAFA" cx="10.0356734" cy="45.0119998" r="1.11428574"></circle>
                            <circle id="Oval" fill="#FAFAFA" cx="16" cy="42.2857143" r="1.14285714"></circle>
                            <rect id="Rectangle-13" stroke="#FAFAFA" stroke-width="2" x="0" y="0" width="25.1428571" height="6.85714286" rx="2"></rect>
                            <path d="M9.47278894,21.5013512 L9.47278894,12.9756368" id="Line-Copy" stroke="#FAFAFA" stroke-width="2" stroke-linecap="round"></path>
                            <path d="M4,36.5714286 L21.1428571,36.5714286" id="Line" stroke="#FAFAFA" stroke-width="2" stroke-linecap="square"></path>
                        </g>
                    </g>
                </g>
            </g>
            <g id="Row-4" transform="translate(0.000000, 378.000000)">
                <g id="box">
                    <use fill="black" fill-opacity="1" filter="url(#filter-12)" xlink:href="#path-11"></use>
                    <use fill="#FFFFFF" fill-rule="evenodd" xlink:href="#path-11"></use>
                </g>
                <text id="NextTier-High-School" font-family="Roboto-Regular, Roboto" font-size="14" font-weight="normal" fill="#000000">
                    <tspan x="77.5942383" y="115">NextTier High School Scholarships</tspan>
                </text>
                <g id="all-colleges" transform="translate(146.000000, 15.000000)">
                    <rect id="Rectangle-45" fill-opacity="0.5" fill="#3692CC" x="2.96296296" y="69.1358025" width="72.0987654" height="9.87654321" rx="1"></rect>
                    <circle id="Oval-31" fill-opacity="0.5" fill="#3692CC" cx="39.0123457" cy="15.308642" r="6.41975309"></circle>
                    <path d="M3.95061728,19.6273942 L3.95061728,24.6945182 L78.0246914,24.6945182 L78.0246914,19.6273942 L40.9876543,2.86659635 L3.95061728,19.6273942 Z M41.3948536,0.882710925 L79.419545,18.0904634 C79.7729395,18.2503891 80,18.602372 80,18.9902688 L80,25.6821725 C80,26.2276389 79.5578121,26.6698268 79.0123457,26.6698268 L2.96296296,26.6698268 C2.41749654,26.6698268 1.97530864,26.2276389 1.97530864,25.6821725 L1.97530864,18.9902688 C1.97530864,18.602372 2.20236912,18.2503891 2.55576364,18.0904634 L40.580455,0.882710925 C40.8392862,0.765579037 41.1360224,0.765579037 41.3948536,0.882710925 Z" id="Rectangle-44" fill="#000000" fill-rule="nonzero"></path>
                    <path d="M5.92592593,76.0493827 L76.0493827,76.0493827 L76.0493827,68.1481481 L5.92592593,68.1481481 L5.92592593,76.0493827 Z M4.9382716,66.1728395 L77.037037,66.1728395 C77.5825035,66.1728395 78.0246914,66.6150274 78.0246914,67.1604938 L78.0246914,77.037037 C78.0246914,77.5825035 77.5825035,78.0246914 77.037037,78.0246914 L4.9382716,78.0246914 C4.39280519,78.0246914 3.95061728,77.5825035 3.95061728,77.037037 L3.95061728,67.1604938 C3.95061728,66.6150274 4.39280519,66.1728395 4.9382716,66.1728395 Z" id="Rectangle-45" fill="#000000" fill-rule="nonzero"></path>
                    <path d="M0.987654321,78.0246914 L80,78.0246914 C80.5454664,78.0246914 80.9876543,77.5825035 80.9876543,77.037037 C80.9876543,76.4915706 80.5454664,76.0493827 80,76.0493827 L0.987654321,76.0493827 C0.442187901,76.0493827 0,76.4915706 0,77.037037 C0,77.5825035 0.442187901,78.0246914 0.987654321,78.0246914 Z" id="Line-2" fill="#000000" fill-rule="nonzero"></path>
                    <g id="Group-4" transform="translate(6.913580, 25.679012)" fill="#000000" fill-rule="nonzero">
                        <path d="M0.987654321,0.987654321 L0.987654321,4.9382716 L12.8395062,4.9382716 L12.8395062,0.987654321 L0.987654321,0.987654321 Z M0,-0.987654321 L13.8271605,-0.987654321 C14.3726269,-0.987654321 14.8148148,-0.54546642 14.8148148,0 L14.8148148,5.92592593 C14.8148148,6.47139235 14.3726269,6.91358025 13.8271605,6.91358025 L0,6.91358025 C-0.54546642,6.91358025 -0.987654321,6.47139235 -0.987654321,5.92592593 L-0.987654321,0 C-0.987654321,-0.54546642 -0.54546642,-0.987654321 0,-0.987654321 Z" id="Rectangle-2"></path>
                        <path d="M0.987654321,40.4938272 L12.8395062,40.4938272 L12.8395062,36.5432099 L0.987654321,36.5432099 L0.987654321,40.4938272 Z M0,34.5679012 L13.8271605,34.5679012 C14.3726269,34.5679012 14.8148148,35.0100891 14.8148148,35.5555556 L14.8148148,41.4814815 C14.8148148,42.0269479 14.3726269,42.4691358 13.8271605,42.4691358 L0,42.4691358 C-0.54546642,42.4691358 -0.987654321,42.0269479 -0.987654321,41.4814815 L-0.987654321,35.5555556 C-0.987654321,35.0100891 -0.54546642,34.5679012 0,34.5679012 Z" id="Rectangle-2-Copy-4"></path>
                        <path d="M3.95061728,6.91358025 L3.95061728,34.5679012 L9.87654321,34.5679012 L9.87654321,6.91358025 L3.95061728,6.91358025 Z M11.8518519,4.9382716 L11.8518519,36.5432099 L1.97530864,36.5432099 L1.97530864,4.9382716 L11.8518519,4.9382716 Z" id="Rectangle-46"></path>
                    </g>
                    <g id="Group" transform="translate(25.020576, 25.679012)" fill="#000000" fill-rule="nonzero">
                        <path d="M0.987654321,40.4938272 L12.8395062,40.4938272 L12.8395062,36.5432099 L0.987654321,36.5432099 L0.987654321,40.4938272 Z M0,34.5679012 L13.8271605,34.5679012 C14.3726269,34.5679012 14.8148148,35.0100891 14.8148148,35.5555556 L14.8148148,41.4814815 C14.8148148,42.0269479 14.3726269,42.4691358 13.8271605,42.4691358 L0,42.4691358 C-0.54546642,42.4691358 -0.987654321,42.0269479 -0.987654321,41.4814815 L-0.987654321,35.5555556 C-0.987654321,35.0100891 -0.54546642,34.5679012 0,34.5679012 Z" id="Rectangle-2-Copy-5"></path>
                        <path d="M0.987654321,0.987654321 L0.987654321,4.9382716 L12.8395062,4.9382716 L12.8395062,0.987654321 L0.987654321,0.987654321 Z M0,-0.987654321 L13.8271605,-0.987654321 C14.3726269,-0.987654321 14.8148148,-0.54546642 14.8148148,0 L14.8148148,5.92592593 C14.8148148,6.47139235 14.3726269,6.91358025 13.8271605,6.91358025 L0,6.91358025 C-0.54546642,6.91358025 -0.987654321,6.47139235 -0.987654321,5.92592593 L-0.987654321,0 C-0.987654321,-0.54546642 -0.54546642,-0.987654321 0,-0.987654321 Z" id="Rectangle-2-Copy"></path>
                        <path d="M3.95061728,6.91358025 L3.95061728,34.5679012 L9.87654321,34.5679012 L9.87654321,6.91358025 L3.95061728,6.91358025 Z M11.8518519,4.9382716 L11.8518519,36.5432099 L1.97530864,36.5432099 L1.97530864,4.9382716 L11.8518519,4.9382716 Z" id="Rectangle-46-Copy"></path>
                    </g>
                    <g id="Group-2" transform="translate(43.127572, 25.679012)" fill="#000000" fill-rule="nonzero">
                        <path d="M0.987654321,40.4938272 L12.8395062,40.4938272 L12.8395062,36.5432099 L0.987654321,36.5432099 L0.987654321,40.4938272 Z M-3.33066907e-16,34.5679012 L13.8271605,34.5679012 C14.3726269,34.5679012 14.8148148,35.0100891 14.8148148,35.5555556 L14.8148148,41.4814815 C14.8148148,42.0269479 14.3726269,42.4691358 13.8271605,42.4691358 L-3.33066907e-16,42.4691358 C-0.54546642,42.4691358 -0.987654321,42.0269479 -0.987654321,41.4814815 L-0.987654321,35.5555556 C-0.987654321,35.0100891 -0.54546642,34.5679012 -3.33066907e-16,34.5679012 Z" id="Rectangle-2-Copy-6"></path>
                        <path d="M0.987654321,0.987654321 L0.987654321,4.9382716 L12.8395062,4.9382716 L12.8395062,0.987654321 L0.987654321,0.987654321 Z M-3.33066907e-16,-0.987654321 L13.8271605,-0.987654321 C14.3726269,-0.987654321 14.8148148,-0.54546642 14.8148148,0 L14.8148148,5.92592593 C14.8148148,6.47139235 14.3726269,6.91358025 13.8271605,6.91358025 L-3.33066907e-16,6.91358025 C-0.54546642,6.91358025 -0.987654321,6.47139235 -0.987654321,5.92592593 L-0.987654321,0 C-0.987654321,-0.54546642 -0.54546642,-0.987654321 -3.33066907e-16,-0.987654321 Z" id="Rectangle-2-Copy-2"></path>
                        <path d="M3.95061728,6.91358025 L3.95061728,34.5679012 L9.87654321,34.5679012 L9.87654321,6.91358025 L3.95061728,6.91358025 Z M11.8518519,4.9382716 L11.8518519,36.5432099 L1.97530864,36.5432099 L1.97530864,4.9382716 L11.8518519,4.9382716 Z" id="Rectangle-46-Copy-2"></path>
                    </g>
                    <g id="Group-3" transform="translate(61.234568, 25.679012)" fill="#000000" fill-rule="nonzero">
                        <path d="M0.987654321,40.4938272 L12.8395062,40.4938272 L12.8395062,36.5432099 L0.987654321,36.5432099 L0.987654321,40.4938272 Z M-2.22044605e-16,34.5679012 L13.8271605,34.5679012 C14.3726269,34.5679012 14.8148148,35.0100891 14.8148148,35.5555556 L14.8148148,41.4814815 C14.8148148,42.0269479 14.3726269,42.4691358 13.8271605,42.4691358 L-2.22044605e-16,42.4691358 C-0.54546642,42.4691358 -0.987654321,42.0269479 -0.987654321,41.4814815 L-0.987654321,35.5555556 C-0.987654321,35.0100891 -0.54546642,34.5679012 -2.22044605e-16,34.5679012 Z" id="Rectangle-2-Copy-7"></path>
                        <path d="M0.987654321,0.987654321 L0.987654321,4.9382716 L12.8395062,4.9382716 L12.8395062,0.987654321 L0.987654321,0.987654321 Z M-2.22044605e-16,-0.987654321 L13.8271605,-0.987654321 C14.3726269,-0.987654321 14.8148148,-0.54546642 14.8148148,0 L14.8148148,5.92592593 C14.8148148,6.47139235 14.3726269,6.91358025 13.8271605,6.91358025 L-2.22044605e-16,6.91358025 C-0.54546642,6.91358025 -0.987654321,6.47139235 -0.987654321,5.92592593 L-0.987654321,0 C-0.987654321,-0.54546642 -0.54546642,-0.987654321 -2.22044605e-16,-0.987654321 Z" id="Rectangle-2-Copy-3"></path>
                        <path d="M3.95061728,6.91358025 L3.95061728,34.5679012 L9.87654321,34.5679012 L9.87654321,6.91358025 L3.95061728,6.91358025 Z M11.8518519,4.9382716 L11.8518519,36.5432099 L1.97530864,36.5432099 L1.97530864,4.9382716 L11.8518519,4.9382716 Z" id="Rectangle-46-Copy-3"></path>
                    </g>
                    <path d="M40.9876543,21.7283951 C36.8966562,21.7283951 33.5802469,18.4119858 33.5802469,14.3209877 C33.5802469,10.2299895 36.8966562,6.91358025 40.9876543,6.91358025 C45.0786525,6.91358025 48.3950617,10.2299895 48.3950617,14.3209877 C48.3950617,18.4119858 45.0786525,21.7283951 40.9876543,21.7283951 Z M40.9876543,19.7530864 C43.9877196,19.7530864 46.4197531,17.321053 46.4197531,14.3209877 C46.4197531,11.3209223 43.9877196,8.88888889 40.9876543,8.88888889 C37.987589,8.88888889 35.5555556,11.3209223 35.5555556,14.3209877 C35.5555556,17.321053 37.987589,19.7530864 40.9876543,19.7530864 Z" id="Oval-31" fill="#000000" fill-rule="nonzero"></path>
                    <circle id="Oval-32" fill="#000000" cx="28.1481481" cy="14.3209877" r="1.48148148"></circle>
                    <circle id="Oval-32-Copy" fill="#000000" cx="53.8271605" cy="14.3209877" r="1.48148148"></circle>
                </g>
            </g>
            <g id="Row-1">
                <g id="Recommended" transform="translate(188.000000, 0.000000)">
                    <g id="box">
                        <use fill="black" fill-opacity="1" filter="url(#filter-14)" xlink:href="#path-13"></use>
                        <use fill="#FFFFFF" fill-rule="evenodd" xlink:href="#path-13"></use>
                    </g>
                    <text font-family="Roboto-Regular, Roboto" font-size="14" font-weight="normal" fill="#000000">
                        <tspan x="45.3911133" y="115">Recommended</tspan>
                    </text>
                    <g id="recommended" transform="translate(56.000000, 15.000000)">
                        <g id="thumbs-down">
                            <path d="M0.128181455,3.0333709 C0.128181455,2.48312126 0.57429008,2.03705579 1.1211469,2.03705579 L24.1355475,2.03705579 C25.7883336,2.03705579 27.1281815,3.38902045 27.1281815,5.0376333 L27.1281815,30.0364783 C27.1281815,31.6936515 25.7892473,33.0370558 24.1355475,33.0370558 L1.1211469,33.0370558 C0.572747228,33.0370558 0.128181455,32.59883 0.128181455,32.0407407 L0.128181455,3.0333709 Z" id="Rectangle-behind" fill-opacity="0.5" fill="#3692CC"></path>
                            <g transform="translate(3.000000, 0.000000)" fill="#000000">
                                <path d="M2,2 L2,29 L24.0073661,29 C24.5548975,29 25,28.5536219 25,27.9994225 L25,3.0005775 C25,2.45151471 24.5505663,2 24.0073661,2 L2,2 Z M0,0.996315107 C0,0.446065467 0.446108624,0 0.992965445,0 L24.0073661,0 C25.6601521,0 27,1.35196465 27,3.0005775 L27,27.9994225 C27,29.6565957 25.6610658,31 24.0073661,31 L0.992965445,31 C0.444565773,31 0,30.5617743 0,30.0036849 L0,0.996315107 Z" id="Rectangle-2" fill-rule="nonzero"></path>
                                <circle id="Oval" cx="21.975" cy="4.97500002" r="1"></circle>
                                <circle id="Oval-Copy" cx="11.975" cy="24.975" r="1"></circle>
                                <path d="M13,21.5 L13,16.5 C13,15.9477153 12.5522847,15.5 12,15.5 C11.4477153,15.5 11,15.9477153 11,16.5 L11,21.5 C11,22.0522847 11.4477153,22.5 12,22.5 C12.5522847,22.5 13,22.0522847 13,21.5 Z" id="Line" fill-rule="nonzero"></path>
                                <polygon id="Line" fill-rule="nonzero" points="17 0.5 17 30.5 19 30.5 19 0.5"></polygon>
                                <g id="hand" transform="translate(24.000000, 2.000000)" fill-rule="nonzero">
                                    <path d="M21,14 L28.5121689,14 C29.4531393,14 30.2560656,14.8785494 30.2560656,16 C30.2560656,17.1188358 29.4470965,18 28.5090493,18 L21,18 C20.4477153,18 20,18.4477153 20,19 C20,19.5522847 20.4477153,20 21,20 L28.5090493,20 C30.5916461,20 32.2560656,18.1870421 32.2560656,16 C32.2560656,13.8121561 30.5998948,12 28.5121689,12 L21,12 C20.4477153,12 20,12.4477153 20,13 C20,13.5522847 20.4477153,14 21,14 Z" id="Rectangle-3"></path>
                                    <path d="M21,8 L27.5121689,8 C28.4531393,8 29.2560656,8.87854941 29.2560656,10 C29.2560656,11.1188358 28.4470965,12 27.5090493,12 L21,12 C20.4477153,12 20,12.4477153 20,13 C20,13.5522847 20.4477153,14 21,14 L27.5090493,14 C29.5916461,14 31.2560656,12.1870421 31.2560656,10 C31.2560656,7.81215607 29.5998948,6 27.5121689,6 L21,6 C20.4477153,6 20,6.44771525 20,7 C20,7.55228475 20.4477153,8 21,8 Z" id="Rectangle-3-Copy-2"></path>
                                    <path d="M2,2 L26.5121689,2 C27.4531393,2 28.2560656,2.87854941 28.2560656,4 C28.2560656,5.11883576 27.4470965,6 26.5090493,6 L21,6 C20.4477153,6 20,6.44771525 20,7 C20,7.55228475 20.4477153,8 21,8 L26.5090493,8 C28.5916461,8 30.2560656,6.18704207 30.2560656,4 C30.2560656,1.81215607 28.5998948,0 26.5121689,0 L2,0 C1.44771525,0 1,0.44771525 1,1 C1,1.55228475 1.44771525,2 2,2 Z" id="Rectangle-3-Copy-3"></path>
                                    <path d="M21,20 L28.5121689,20 C29.4531393,20 30.2560656,20.8785494 30.2560656,22 C30.2560656,23.1188358 29.4470965,24 28.5090493,24 L18,24 C17.4477153,24 17,24.4477153 17,25 C17,25.5522847 17.4477153,26 18,26 L28.5090493,26 C30.5916461,26 32.2560656,24.1870421 32.2560656,22 C32.2560656,19.8121561 30.5998948,18 28.5121689,18 L21,18 C20.4477153,18 20,18.4477153 20,19 C20,19.5522847 20.4477153,20 21,20 Z" id="Rectangle-3-Copy"></path>
                                    <path d="M21.3312939,31.4310969 C23.4241881,31.4311499 25.0886076,29.618192 25.0886076,27.4311499 C25.0886076,25.2655711 23.465974,23.4680724 21.4083141,23.4317115 L12.3912785,22.3667386 C11.8428059,22.3019602 11.3456677,22.6940719 11.2808894,23.2425446 C11.2161111,23.7910172 11.6082228,24.2881553 12.1566954,24.3529336 L21.2274194,25.4242475 L21.3447109,25.4311499 C22.2856812,25.4311499 23.0886076,26.3096994 23.0886076,27.4311499 C23.0886076,28.5499857 22.2796385,29.4311499 21.3415913,29.4311499 L7.24021793,29.2858812 L6.72043436,29.2805285 L2.14392774,35.65923 C1.82197424,36.1079665 1.92475212,36.7327341 2.37348855,37.0546876 C2.82222499,37.3766411 3.44699263,37.2738632 3.76894612,36.8251268 L7.73940663,31.2911279 L21.3312939,31.4310969 Z" id="Rectangle-3-Copy-4" transform="translate(13.522484, 29.800997) rotate(-306.000000) translate(-13.522484, -29.800997) "></path>
                                </g>
                            </g>
                        </g>
                        <g id="thumbs-up" transform="translate(16.000000, 31.000000)">
                            <path d="M27.7562142,18.356815 C27.7562142,17.8065653 28.2023229,17.3604999 28.7491797,17.3604999 L51.7635803,17.3604999 C53.4163664,17.3604999 54.7562142,18.7124645 54.7562142,20.3610774 L54.7562142,45.3599224 C54.7562142,47.0170956 53.41728,48.3604999 51.7635803,48.3604999 L28.7491797,48.3604999 C28.20078,48.3604999 27.7562142,47.9222741 27.7562142,47.3641848 L27.7562142,18.356815 Z" id="Rectangle-behind" fill-opacity="0.5" fill="#3692CC" transform="translate(41.256214, 32.860500) rotate(-180.000000) translate(-41.256214, -32.860500) "></path>
                            <g transform="translate(29.256214, 23.360500) rotate(-180.000000) translate(-29.256214, -23.360500) translate(0.756214, 0.360500)" fill="#000000">
                                <path d="M2,2 L2,29 L24.0073661,29 C24.5548975,29 25,28.5536219 25,27.9994225 L25,3.0005775 C25,2.45151471 24.5505663,2 24.0073661,2 L2,2 Z M0,0.996315107 C0,0.446065467 0.446108624,0 0.992965445,0 L24.0073661,0 C25.6601521,0 27,1.35196465 27,3.0005775 L27,27.9994225 C27,29.6565957 25.6610658,31 24.0073661,31 L0.992965445,31 C0.444565773,31 0,30.5617743 0,30.0036849 L0,0.996315107 Z" id="Rectangle-2" fill-rule="nonzero"></path>
                                <circle id="Oval" cx="21.975" cy="4.97500002" r="1"></circle>
                                <circle id="Oval-Copy" cx="11.975" cy="24.975" r="1"></circle>
                                <path d="M13,21.5 L13,16.5 C13,15.9477153 12.5522847,15.5 12,15.5 C11.4477153,15.5 11,15.9477153 11,16.5 L11,21.5 C11,22.0522847 11.4477153,22.5 12,22.5 C12.5522847,22.5 13,22.0522847 13,21.5 Z" id="Line" fill-rule="nonzero"></path>
                                <polygon id="Line" fill-rule="nonzero" points="17 0.5 17 30.5 19 30.5 19 0.5"></polygon>
                                <g id="hand" transform="translate(24.000000, 2.000000)" fill-rule="nonzero">
                                    <path d="M21,14 L28.5121689,14 C29.4531393,14 30.2560656,14.8785494 30.2560656,16 C30.2560656,17.1188358 29.4470965,18 28.5090493,18 L21,18 C20.4477153,18 20,18.4477153 20,19 C20,19.5522847 20.4477153,20 21,20 L28.5090493,20 C30.5916461,20 32.2560656,18.1870421 32.2560656,16 C32.2560656,13.8121561 30.5998948,12 28.5121689,12 L21,12 C20.4477153,12 20,12.4477153 20,13 C20,13.5522847 20.4477153,14 21,14 Z" id="Rectangle-3"></path>
                                    <path d="M21,8 L27.5121689,8 C28.4531393,8 29.2560656,8.87854941 29.2560656,10 C29.2560656,11.1188358 28.4470965,12 27.5090493,12 L21,12 C20.4477153,12 20,12.4477153 20,13 C20,13.5522847 20.4477153,14 21,14 L27.5090493,14 C29.5916461,14 31.2560656,12.1870421 31.2560656,10 C31.2560656,7.81215607 29.5998948,6 27.5121689,6 L21,6 C20.4477153,6 20,6.44771525 20,7 C20,7.55228475 20.4477153,8 21,8 Z" id="Rectangle-3-Copy-2"></path>
                                    <path d="M2,2 L26.5121689,2 C27.4531393,2 28.2560656,2.87854941 28.2560656,4 C28.2560656,5.11883576 27.4470965,6 26.5090493,6 L21,6 C20.4477153,6 20,6.44771525 20,7 C20,7.55228475 20.4477153,8 21,8 L26.5090493,8 C28.5916461,8 30.2560656,6.18704207 30.2560656,4 C30.2560656,1.81215607 28.5998948,-2.84217094e-14 26.5121689,-2.84217094e-14 L2,-2.84217094e-14 C1.44771525,-2.84217094e-14 1,0.44771525 1,1 C1,1.55228475 1.44771525,2 2,2 Z" id="Rectangle-3-Copy-3"></path>
                                    <path d="M21,20 L28.5121689,20 C29.4531393,20 30.2560656,20.8785494 30.2560656,22 C30.2560656,23.1188358 29.4470965,24 28.5090493,24 L18,24 C17.4477153,24 17,24.4477153 17,25 C17,25.5522847 17.4477153,26 18,26 L28.5090493,26 C30.5916461,26 32.2560656,24.1870421 32.2560656,22 C32.2560656,19.8121561 30.5998948,18 28.5121689,18 L21,18 C20.4477153,18 20,18.4477153 20,19 C20,19.5522847 20.4477153,20 21,20 Z" id="Rectangle-3-Copy"></path>
                                    <path d="M21.3312939,31.4310969 C23.4241881,31.4311499 25.0886076,29.618192 25.0886076,27.4311499 C25.0886076,25.2655711 23.465974,23.4680724 21.4083141,23.4317115 L12.3912785,22.3667386 C11.8428059,22.3019602 11.3456677,22.6940719 11.2808894,23.2425446 C11.2161111,23.7910172 11.6082228,24.2881553 12.1566954,24.3529336 L21.2274194,25.4242475 L21.3447109,25.4311499 C22.2856812,25.4311499 23.0886076,26.3096994 23.0886076,27.4311499 C23.0886076,28.5499857 22.2796385,29.4311499 21.3415913,29.4311499 L7.24021793,29.2858812 L6.72043436,29.2805285 L2.14392774,35.65923 C1.82197424,36.1079665 1.92475212,36.7327341 2.37348855,37.0546876 C2.82222499,37.3766411 3.44699263,37.2738632 3.76894612,36.8251268 L7.73940663,31.2911279 L21.3312939,31.4310969 Z" id="Rectangle-3-Copy-4" transform="translate(13.522484, 29.800997) rotate(55.000000) translate(-13.522484, -29.800997) "></path>
                                </g>
                            </g>
                        </g>
                    </g>
                </g>
                <g id="recommendation-chip" transform="translate(343.000000, 5.000000)">
                    <rect id="Rectangle-16" fill="#31BA82" x="0" y="0" width="25" height="25" rx="12.5"></rect>
                    <text id="3" font-family="Roboto-Regular, Roboto" font-size="14" font-weight="normal" fill="#FFFFFF">
                        <tspan x="8.55908203" y="18">3</tspan>
                    </text>
                </g>
                <g id="Saved">
                    <g id="box">
                        <use fill="black" fill-opacity="1" filter="url(#filter-16)" xlink:href="#path-15"></use>
                        <use fill="#FFFFFF" fill-rule="evenodd" xlink:href="#path-15"></use>
                    </g>
                    <text font-family="Roboto-Regular, Roboto" font-size="14" font-weight="normal" fill="#000000">
                        <tspan x="73.1913429" y="115">Saved</tspan>
                    </text>
                    <g id="saved" transform="translate(53.000000, 15.000000)">
                        <polygon id="Star-mini" fill="#000000" points="59.8216216 8.75 58.3442154 9.52254249 58.6263749 7.88627124 57.4311282 6.72745751 59.0829185 6.48872876 59.8216216 5 60.5603247 6.48872876 62.212115 6.72745751 61.0168683 7.88627124 61.2990278 9.52254249"></polygon>
                        <polygon id="Star-mini" fill="#000000" points="71.8864865 13.75 70.4090803 14.5225425 70.6912398 12.8862712 69.4959931 11.7274575 71.1477834 11.4887288 71.8864865 10 72.6251896 11.4887288 74.2769799 11.7274575 73.0817332 12.8862712 73.3638927 14.5225425"></polygon>
                        <polygon id="Star-mini" fill="#000000" points="10.5567568 50.75 9.07935058 51.5225425 9.36151005 49.8862712 8.16626335 48.7274575 9.81805367 48.4887288 10.5567568 47 11.2954598 48.4887288 12.9472502 48.7274575 11.7520035 49.8862712 12.0341629 51.5225425"></polygon>
                        <polygon id="Star-mini" fill="#000000" points="74.9027027 71.75 73.4252965 72.5225425 73.707456 70.8862712 72.5122093 69.7274575 74.1639996 69.4887288 74.9027027 68 75.6414058 69.4887288 77.2931961 69.7274575 76.0979494 70.8862712 76.3801089 72.5225425"></polygon>
                        <polygon id="Star-mini" fill="#000000" points="71.8864865 3.75 70.4090803 4.52254249 70.6912398 2.88627124 69.4959931 1.72745751 71.1477834 1.48872876 71.8864865 0 72.6251896 1.48872876 74.2769799 1.72745751 73.0817332 2.88627124 73.3638927 4.52254249"></polygon>
                        <polygon id="Star-mini" fill="#000000" points="2.51351351 44.75 1.03610734 45.5225425 1.31826681 43.8862712 0.123020108 42.7274575 1.77481043 42.4887288 2.51351351 41 3.2522166 42.4887288 4.90400692 42.7274575 3.70876022 43.8862712 3.99091969 45.5225425"></polygon>
                        <polygon id="Star-blue" fill-opacity="0.5" fill="#3692CC" points="39.7135135 61.25 17.5524209 72.8381373 21.784813 48.2940686 3.85611243 30.9118627 28.6329672 27.3309314 39.7135135 5 50.7940598 27.3309314 75.5709146 30.9118627 57.6422141 48.2940686 61.8746061 72.8381373"></polygon>
                        <path d="M20.8985418,68.0101218 L41.7243243,57.1202243 L62.5501068,68.0101218 L58.5727363,44.9449487 L75.4211483,28.6101025 L52.1372156,25.2449391 L41.7243243,4.25955146 L31.3114331,25.2449391 L8.02750038,28.6101025 L24.8759124,44.9449487 L20.8985418,68.0101218 Z M41.7243243,59.3797757 L18.2279216,71.6661528 L22.7153352,45.6431885 L3.70634609,27.2136229 L29.976123,23.4169236 L41.7243243,-0.259551462 L53.4725257,23.4169236 L79.7423026,27.2136229 L60.7333134,45.6431885 L65.2207271,71.6661528 L41.7243243,59.3797757 Z" id="Star" fill="#000000" fill-rule="nonzero"></path>
                    </g>
                </g>
            </g>
        </g>
    </g>
</svg>