<?xml version="1.0" encoding="UTF-8"?>
<svg width="375px" height="640px" viewBox="0 0 375 640" version="1.1" xmlns="http://www.w3.org/2000/svg" xmlns:xlink="http://www.w3.org/1999/xlink" style="background: #FAFAFA;">
    <!-- Generator: Sketch 49.2 (51160) - http://www.bohemiancoding.com/sketch -->
    <title>colleges, saved, empty</title>
    <desc>Created with Sketch.</desc>
    <defs>
        <rect id="path-1" x="0" y="0" width="375" height="65"></rect>
        <filter x="-0.5%" y="-1.5%" width="101.1%" height="106.2%" filterUnits="objectBoundingBox" id="filter-2">
            <feOffset dx="0" dy="1" in="SourceAlpha" result="shadowOffsetOuter1"></feOffset>
            <feGaussianBlur stdDeviation="0.5" in="shadowOffsetOuter1" result="shadowBlurOuter1"></feGaussianBlur>
            <feColorMatrix values="0 0 0 0 0.552941176   0 0 0 0 0.552941176   0 0 0 0 0.560784314  0 0 0 0.5 0" type="matrix" in="shadowBlurOuter1"></feColorMatrix>
        </filter>
        <rect id="path-3" x="0" y="0" width="375" height="49"></rect>
        <filter x="-0.5%" y="-6.1%" width="101.1%" height="108.2%" filterUnits="objectBoundingBox" id="filter-4">
            <feOffset dx="0" dy="-1" in="SourceAlpha" result="shadowOffsetOuter1"></feOffset>
            <feGaussianBlur stdDeviation="0.5" in="shadowOffsetOuter1" result="shadowBlurOuter1"></feGaussianBlur>
            <feComposite in="shadowBlurOuter1" in2="SourceAlpha" operator="out" result="shadowBlurOuter1"></feComposite>
            <feColorMatrix values="0 0 0 0 0.552941176   0 0 0 0 0.552941176   0 0 0 0 0.560784314  0 0 0 0.5 0" type="matrix" in="shadowBlurOuter1"></feColorMatrix>
        </filter>
    </defs>
    <g id="colleges,-saved,-empty" stroke="none" stroke-width="1" fill="none" fill-rule="evenodd">
        <g id="saved" transform="translate(148.000000, 280.000000)">
            <polygon id="Star" fill-opacity="0.5" fill="#3692CC" points="39.5 61.25 17.458053 72.8381373 21.6676903 48.2940686 3.83538064 30.9118627 28.4790265 27.3309314 39.5 5 50.5209735 27.3309314 75.1646194 30.9118627 57.3323097 48.2940686 61.541947 72.8381373"></polygon>
            <polygon id="Star" stroke="#000000" stroke-width="2" points="41.5 58.25 19.458053 69.8381373 23.6676903 45.2940686 5.83538064 27.9118627 30.4790265 24.3309314 41.5 2 52.5209735 24.3309314 77.1646194 27.9118627 59.3323097 45.2940686 63.541947 69.8381373"></polygon>
            <polygon id="Star" fill="#000000" points="59.5 8.75 58.0305369 9.52254249 58.3111794 7.88627124 57.1223587 6.72745751 58.7652684 6.48872876 59.5 5 60.2347316 6.48872876 61.8776413 6.72745751 60.6888206 7.88627124 60.9694631 9.52254249"></polygon>
            <polygon id="Star-Copy" fill="#000000" points="71.5 13.75 70.0305369 14.5225425 70.3111794 12.8862712 69.1223587 11.7274575 70.7652684 11.4887288 71.5 10 72.2347316 11.4887288 73.8776413 11.7274575 72.6888206 12.8862712 72.9694631 14.5225425"></polygon>
            <polygon id="Star-Copy-3" fill="#000000" points="10.5 50.75 9.03053687 51.5225425 9.31117935 49.8862712 8.12235871 48.7274575 9.76526843 48.4887288 10.5 47 11.2347316 48.4887288 12.8776413 48.7274575 11.6888206 49.8862712 11.9694631 51.5225425"></polygon>
            <polygon id="Star-Copy-5" fill="#000000" points="74.5 71.75 73.0305369 72.5225425 73.3111794 70.8862712 72.1223587 69.7274575 73.7652684 69.4887288 74.5 68 75.2347316 69.4887288 76.8776413 69.7274575 75.6888206 70.8862712 75.9694631 72.5225425"></polygon>
            <polygon id="Star-Copy-2" fill="#000000" points="71.5 3.75 70.0305369 4.52254249 70.3111794 2.88627124 69.1223587 1.72745751 70.7652684 1.48872876 71.5 0 72.2347316 1.48872876 73.8776413 1.72745751 72.6888206 2.88627124 72.9694631 4.52254249"></polygon>
            <polygon id="Star-Copy-4" fill="#000000" points="2.5 44.75 1.03053687 45.5225425 1.31117935 43.8862712 0.122358709 42.7274575 1.76526843 42.4887288 2.5 41 3.23473157 42.4887288 4.87764129 42.7274575 3.68882065 43.8862712 3.96946313 45.5225425"></polygon>
        </g>
        <g id="Group-2" transform="translate(25.000000, 225.000000)">
            <text id="You-haven’t-saved-an" font-family="Roboto-Bold, Roboto" font-size="18" font-weight="bold" fill="#3692CC">
                <tspan x="33.5820312" y="19">You haven’t saved any colleges.</tspan>
            </text>
            <text id="With-over-3,500-coll" font-family="Roboto-Italic, Roboto" font-size="16" font-style="italic" font-weight="normal" fill="#030303">
                <tspan x="17.6953125" y="161">With over 3,500 colleges on NextTier, there </tspan>
                <tspan x="49.0625" y="182">must be something worth saving!</tspan>
            </text>
        </g>
        <g id="top-bar/navigation-bar/secondary">
            <g id="Group">
                <g id="Navigation-Bar">
                    <g id="Rectangle">
                        <use fill="black" fill-opacity="1" filter="url(#filter-2)" xlink:href="#path-1"></use>
                        <use fill="#FAFAFA" fill-rule="evenodd" xlink:href="#path-1"></use>
                    </g>
                    <g id="status-bar/black/100%" fill="#030303">
                        <path d="M346.493713,6.175 L366.006287,6.175 C366.82662,6.175 367.5,6.84222789 367.5,7.6652952 L367.5,13.7097048 C367.5,14.5216582 366.831242,15.2 366.006287,15.2 L346.493713,15.2 C345.67338,15.2 345,14.5327721 345,13.7097048 L345,7.6652952 C345,6.85334183 345.668758,6.175 346.493713,6.175 Z M368,9.025 L368.75,9.025 C369.167101,9.025 369.5,9.36279846 369.5,9.77949397 L369.5,11.595506 C369.5,12.0190303 369.164214,12.35 368.75,12.35 L368,12.35 L368,9.025 Z M346.508152,6.65 C345.951365,6.65 345.5,7.10728352 345.5,7.6401535 L345.5,13.7348465 C345.5,14.2816932 345.949058,14.725 346.508152,14.725 L365.991848,14.725 C366.548635,14.725 367,14.2677165 367,13.7348465 L367,7.6401535 C367,7.09330682 366.550942,6.65 365.991848,6.65 L346.508152,6.65 Z M346.506744,7.125 L365.993256,7.125 C366.269775,7.125 366.5,7.34931258 366.5,7.62601616 L366.5,13.7489838 C366.5,14.0289499 366.273123,14.25 365.993256,14.25 L346.506744,14.25 C346.230225,14.25 346,14.0256874 346,13.7489838 L346,7.62601616 C346,7.3460501 346.226877,7.125 346.506744,7.125 Z" id="Battery" fill-rule="evenodd"></path>
                        <text id="100%" font-family="Roboto-Regular, Roboto" font-size="12" font-weight="normal">
                            <tspan x="312.943359" y="15.375">100%</tspan>
                        </text>
                        <text id="9:41-AM" font-family="Roboto-Regular, Roboto" font-size="12" font-weight="normal">
                            <tspan x="165.205078" y="14.975">9:41 AM</tspan>
                        </text>
                        <path d="M54.1444208,12.7665791 L52.0225391,14.725 L49.8601652,12.7350518 C50.3778594,12.1898624 51.1390073,11.8454663 51.987563,11.8454663 C52.8523616,11.8454663 53.626374,12.2031733 54.1444208,12.7665791 Z M56.3234964,10.7553703 L55.2346215,11.7603628 C54.4356305,10.9423233 53.2768836,10.4278497 51.987563,10.4278497 C50.713648,10.4278497 49.567205,10.9301023 48.7692987,11.73117 L47.6792698,10.7280589 C48.7566264,9.67077099 50.2882723,9.01023316 51.987563,9.01023316 C53.7014387,9.01023316 55.2447794,9.68215835 56.3234964,10.7553703 Z M58.5,8.74653536 L57.4118698,9.75084059 C56.0538809,8.42224978 54.1260026,7.59261658 51.987563,7.59261658 C49.8628921,7.59261658 47.9460798,8.41160072 46.5895579,9.72523969 L45.5,8.7225621 C47.1355496,7.15250825 49.4375103,6.175 51.987563,6.175 C54.5505699,6.175 56.8629578,7.16246488 58.5,8.74653536 Z" id="Wi-Fi" fill-rule="evenodd"></path>
                        <path d="M9.25,13.3 C7.73121694,13.3 6.5,12.1303439 6.5,10.6875 C6.5,9.24465609 7.73121694,8.075 9.25,8.075 C10.7687831,8.075 12,9.24465609 12,10.6875 C12,12.1303439 10.7687831,13.3 9.25,13.3 Z M16.25,13.3 C14.7312169,13.3 13.5,12.1303439 13.5,10.6875 C13.5,9.24465609 14.7312169,8.075 16.25,8.075 C17.7687831,8.075 19,9.24465609 19,10.6875 C19,12.1303439 17.7687831,13.3 16.25,13.3 Z M23.25,13.3 C21.7312169,13.3 20.5,12.1303439 20.5,10.6875 C20.5,9.24465609 21.7312169,8.075 23.25,8.075 C24.7687831,8.075 26,9.24465609 26,10.6875 C26,12.1303439 24.7687831,13.3 23.25,13.3 Z M30.25,13.3 C28.7312169,13.3 27.5,12.1303439 27.5,10.6875 C27.5,9.24465609 28.7312169,8.075 30.25,8.075 C31.7687831,8.075 33,9.24465609 33,10.6875 C33,12.1303439 31.7687831,13.3 30.25,13.3 Z M37.25,13.3 C35.7312169,13.3 34.5,12.1303439 34.5,10.6875 C34.5,9.24465609 35.7312169,8.075 37.25,8.075 C38.7687831,8.075 40,9.24465609 40,10.6875 C40,12.1303439 38.7687831,13.3 37.25,13.3 Z" id="Mobile-Signal" fill-rule="evenodd"></path>
                    </g>
                </g>
                <g id="header,-filter,-sub" transform="translate(20.000000, 25.000000)">
                    <text id="Saved" font-family="Roboto-Regular, Roboto" font-size="16" font-weight="normal" fill="#030303">
                        <tspan x="145.3125" y="27">Saved</tspan>
                    </text>
                    <text id="Scholarships" font-family="Roboto-Regular, Roboto" font-size="10" font-weight="normal" fill="#484848" fill-opacity="0.5">
                        <tspan x="147.727539" y="10">Colleges</tspan>
                    </text>
                    <g id="ic_chevron_left" transform="translate(5.000000, 21.000000) rotate(-180.000000) translate(-5.000000, -21.000000) translate(0.000000, 13.000000)" fill="#000000" fill-rule="nonzero">
                        <polygon id="Shape" points="2 0 0.113333333 1.88666667 6.22666667 8 0.113333333 14.1133333 2 16 10 8"></polygon>
                    </g>
                </g>
            </g>
        </g>
        <g id="bottom-bar,-tab-bar" transform="translate(0.000000, 591.000000)">
            <g id="Bar">
                <use fill="black" fill-opacity="1" filter="url(#filter-4)" xlink:href="#path-3"></use>
                <use fill-opacity="0.9" fill="#FAFAFA" fill-rule="evenodd" xlink:href="#path-3"></use>
            </g>
            <g id="ic_colleges" transform="translate(134.000000, 15.000000)" fill="#3692CC" fill-rule="nonzero">
                <path d="M1.9047619,8.57142857 L1.9047619,15.2380952 L4.76190476,15.2380952 L4.76190476,8.57142857 L1.9047619,8.57142857 Z M7.61904762,8.57142857 L7.61904762,15.2380952 L10.4761905,15.2380952 L10.4761905,8.57142857 L7.61904762,8.57142857 Z M-2.84217094e-14,20 L18.0952381,20 L18.0952381,17.1428571 L-2.84217094e-14,17.1428571 L-2.84217094e-14,20 Z M13.3333333,8.57142857 L13.3333333,15.2380952 L16.1904762,15.2380952 L16.1904762,8.57142857 L13.3333333,8.57142857 Z M9.04761905,0 L-2.84217094e-14,4.76190476 L-2.84217094e-14,6.66666667 L18.0952381,6.66666667 L18.0952381,4.76190476 L9.04761905,0 Z" id="Shape"></path>
            </g>
            <g id="ic_profile" transform="translate(332.000000, 15.000000)" fill="#000000">
                <path d="M10,0 C4.5,0 0,4.5 0,10 C0,15.5 4.5,20 10,20 C15.5,20 20,15.5 20,10 C20,4.5 15.5,0 10,0 L10,0 Z M10,3 C11.7,3 13,4.3 13,6 C13,7.7 11.7,9 10,9 C8.3,9 7,7.7 7,6 C7,4.3 8.3,3 10,3 L10,3 Z M10,17.2 C7.5,17.2 5.3,15.9 4,14 C4,12 8,10.9 10,10.9 C12,10.9 16,12 16,14 C14.7,15.9 12.5,17.2 10,17.2 L10,17.2 Z" id="Shape"></path>
            </g>
            <g id="ic_monetization_on_black_48px" transform="translate(233.000000, 15.000000)" fill="#000000" fill-rule="nonzero">
                <path d="M10,0 C4.48,0 0,4.48 0,10 C0,15.52 4.48,20 10,20 C15.52,20 20,15.52 20,10 C20,4.48 15.52,0 10,0 Z M11.41,16.09 L11.41,18 L8.74,18 L8.74,16.07 C7.03,15.71 5.58,14.61 5.47,12.67 L7.43,12.67 C7.53,13.72 8.25,14.54 10.08,14.54 C12.04,14.54 12.48,13.56 12.48,12.95 C12.48,12.12 12.04,11.34 9.81,10.81 C7.33,10.21 5.63,9.19 5.63,7.14 C5.63,5.42 7.02,4.3 8.74,3.93 L8.74,2 L11.41,2 L11.41,3.95 C13.27,4.4 14.2,5.81 14.26,7.34 L12.3,7.34 C12.25,6.23 11.66,5.47 10.08,5.47 C8.58,5.47 7.68,6.15 7.68,7.11 C7.68,7.95 8.33,8.5 10.35,9.02 C12.37,9.54 14.53,10.41 14.53,12.93 C14.52,14.76 13.15,15.76 11.41,16.09 Z" id="Shape"></path>
            </g>
            <g id="ic_tasks" transform="translate(29.000000, 15.000000)" fill="#000000" fill-rule="nonzero">
                <path d="M16,2 L11.815,2 C11.405,0.84 10.305,0 9,0 C7.695,0 6.595,0.84 6.185,2 L2,2 C0.895,2 5.68434189e-14,2.895 5.68434189e-14,4 L5.68434189e-14,18 C5.68434189e-14,19.105 0.895,20 2,20 L16,20 C17.105,20 18,19.105 18,18 L18,4 C18,2.895 17.105,2 16,2 L16,2 Z M9,2 C9.55,2 10,2.445 10,3 C10,3.555 9.55,4 9,4 C8.45,4 8,3.555 8,3 C8,2.445 8.45,2 9,2 Z M11,16 L4,16 L4,14 L11,14 L11,16 Z M14,12 L4,12 L4,10 L14,10 L14,12 Z M14,8 L4,8 L4,6 L14,6 L14,8 Z" id="Shape"></path>
            </g>
        </g>
    </g>
</svg>