<?xml version="1.0" encoding="UTF-8"?>
<svg width="375px" height="640px" viewBox="0 0 375 640" version="1.1" xmlns="http://www.w3.org/2000/svg" xmlns:xlink="http://www.w3.org/1999/xlink" style="background: #FAFAFA;">
    <!-- Generator: Sketch 49.2 (51160) - http://www.bohemiancoding.com/sketch -->
    <title>tasks, list view, all tasks, list</title>
    <desc>Created with Sketch.</desc>
    <defs>
        <rect id="path-1" x="0" y="0" width="365" height="75"></rect>
        <filter x="-1.0%" y="-3.3%" width="101.9%" height="109.3%" filterUnits="objectBoundingBox" id="filter-2">
            <feOffset dx="0" dy="1" in="SourceAlpha" result="shadowOffsetOuter1"></feOffset>
            <feGaussianBlur stdDeviation="1" in="shadowOffsetOuter1" result="shadowBlurOuter1"></feGaussianBlur>
            <feColorMatrix values="0 0 0 0 0.552941176   0 0 0 0 0.552941176   0 0 0 0 0.560784314  0 0 0 0.5 0" type="matrix" in="shadowBlurOuter1"></feColorMatrix>
        </filter>
        <rect id="path-3" x="0" y="0" width="365" height="75"></rect>
        <filter x="-1.0%" y="-3.3%" width="101.9%" height="109.3%" filterUnits="objectBoundingBox" id="filter-4">
            <feOffset dx="0" dy="1" in="SourceAlpha" result="shadowOffsetOuter1"></feOffset>
            <feGaussianBlur stdDeviation="1" in="shadowOffsetOuter1" result="shadowBlurOuter1"></feGaussianBlur>
            <feColorMatrix values="0 0 0 0 0.552941176   0 0 0 0 0.552941176   0 0 0 0 0.560784314  0 0 0 0.5 0" type="matrix" in="shadowBlurOuter1"></feColorMatrix>
        </filter>
        <rect id="path-5" x="0" y="0" width="365" height="75"></rect>
        <filter x="-1.0%" y="-3.3%" width="101.9%" height="109.3%" filterUnits="objectBoundingBox" id="filter-6">
            <feOffset dx="0" dy="1" in="SourceAlpha" result="shadowOffsetOuter1"></feOffset>
            <feGaussianBlur stdDeviation="1" in="shadowOffsetOuter1" result="shadowBlurOuter1"></feGaussianBlur>
            <feColorMatrix values="0 0 0 0 0.552941176   0 0 0 0 0.552941176   0 0 0 0 0.560784314  0 0 0 0.5 0" type="matrix" in="shadowBlurOuter1"></feColorMatrix>
        </filter>
        <rect id="path-7" x="0" y="0" width="365" height="75"></rect>
        <filter x="-1.0%" y="-3.3%" width="101.9%" height="109.3%" filterUnits="objectBoundingBox" id="filter-8">
            <feOffset dx="0" dy="1" in="SourceAlpha" result="shadowOffsetOuter1"></feOffset>
            <feGaussianBlur stdDeviation="1" in="shadowOffsetOuter1" result="shadowBlurOuter1"></feGaussianBlur>
            <feColorMatrix values="0 0 0 0 0.552941176   0 0 0 0 0.552941176   0 0 0 0 0.560784314  0 0 0 0.5 0" type="matrix" in="shadowBlurOuter1"></feColorMatrix>
        </filter>
        <rect id="path-9" x="0" y="0" width="365" height="75"></rect>
        <filter x="-1.0%" y="-3.3%" width="101.9%" height="109.3%" filterUnits="objectBoundingBox" id="filter-10">
            <feOffset dx="0" dy="1" in="SourceAlpha" result="shadowOffsetOuter1"></feOffset>
            <feGaussianBlur stdDeviation="1" in="shadowOffsetOuter1" result="shadowBlurOuter1"></feGaussianBlur>
            <feColorMatrix values="0 0 0 0 0.552941176   0 0 0 0 0.552941176   0 0 0 0 0.560784314  0 0 0 0.5 0" type="matrix" in="shadowBlurOuter1"></feColorMatrix>
        </filter>
        <rect id="path-11" x="0" y="0" width="365" height="75"></rect>
        <filter x="-1.0%" y="-3.3%" width="101.9%" height="109.3%" filterUnits="objectBoundingBox" id="filter-12">
            <feOffset dx="0" dy="1" in="SourceAlpha" result="shadowOffsetOuter1"></feOffset>
            <feGaussianBlur stdDeviation="1" in="shadowOffsetOuter1" result="shadowBlurOuter1"></feGaussianBlur>
            <feColorMatrix values="0 0 0 0 0.552941176   0 0 0 0 0.552941176   0 0 0 0 0.560784314  0 0 0 0.5 0" type="matrix" in="shadowBlurOuter1"></feColorMatrix>
        </filter>
        <rect id="path-13" x="0" y="0" width="375" height="39"></rect>
        <filter x="-0.5%" y="-2.6%" width="101.1%" height="110.3%" filterUnits="objectBoundingBox" id="filter-14">
            <feOffset dx="0" dy="1" in="SourceAlpha" result="shadowOffsetOuter1"></feOffset>
            <feGaussianBlur stdDeviation="0.5" in="shadowOffsetOuter1" result="shadowBlurOuter1"></feGaussianBlur>
            <feColorMatrix values="0 0 0 0 0.552941176   0 0 0 0 0.552941176   0 0 0 0 0.560784314  0 0 0 0.5 0" type="matrix" in="shadowBlurOuter1"></feColorMatrix>
        </filter>
        <rect id="path-15" x="0" y="0" width="375" height="65"></rect>
        <filter x="-0.5%" y="-1.5%" width="101.1%" height="106.2%" filterUnits="objectBoundingBox" id="filter-16">
            <feOffset dx="0" dy="1" in="SourceAlpha" result="shadowOffsetOuter1"></feOffset>
            <feGaussianBlur stdDeviation="0.5" in="shadowOffsetOuter1" result="shadowBlurOuter1"></feGaussianBlur>
            <feColorMatrix values="0 0 0 0 0.552941176   0 0 0 0 0.552941176   0 0 0 0 0.560784314  0 0 0 0.5 0" type="matrix" in="shadowBlurOuter1"></feColorMatrix>
        </filter>
        <rect id="path-17" x="0" y="0" width="375" height="49"></rect>
        <filter x="-0.5%" y="-6.1%" width="101.1%" height="108.2%" filterUnits="objectBoundingBox" id="filter-18">
            <feOffset dx="0" dy="-1" in="SourceAlpha" result="shadowOffsetOuter1"></feOffset>
            <feGaussianBlur stdDeviation="0.5" in="shadowOffsetOuter1" result="shadowBlurOuter1"></feGaussianBlur>
            <feColorMatrix values="0 0 0 0 0.552941176   0 0 0 0 0.552941176   0 0 0 0 0.560784314  0 0 0 0.5 0" type="matrix" in="shadowBlurOuter1"></feColorMatrix>
        </filter>
    </defs>
    <g id="tasks,-list-view,-all-tasks,-list" stroke="none" stroke-width="1" fill="none" fill-rule="evenodd">
        <g id="Group-8" transform="translate(5.000000, 109.000000)">
            <g id="Group">
                <g id="Rectangle-4-Copy">
                    <use fill="black" fill-opacity="1" filter="url(#filter-2)" xlink:href="#path-1"></use>
                    <use fill="#FFFFFF" fill-rule="evenodd" xlink:href="#path-1"></use>
                </g>
                <g id="general" transform="translate(313.000000, 15.000000)">
                    <g id="bg" transform="translate(6.036585, 12.621951)" fill="#3692CC" fill-opacity="0.5">
                        <g id="Group-2" transform="translate(2.743902, 3.841463)">
                            <path d="M0.548780488,0 L0,5.76219512 C0.914634146,4.84756098 1.82926829,4.3902439 2.74390244,4.3902439 C3.65853659,4.3902439 4.6875,4.84756098 5.83079268,5.76219512 C6.97408537,4.84756098 8.00304878,4.3902439 8.91768293,4.3902439 C9.83231707,4.3902439 10.7469512,4.84756098 11.6615854,5.76219512 L10.4268293,0 L5.48780488,1.64634146 L0.548780488,0 Z" id="Path-8"></path>
                        </g>
                        <polygon id="Path-10" points="0 2.74390244 8.23170732 0 16.4634146 2.74390244 8.23170732 5.48780488"></polygon>
                    </g>
                    <g id="clipboard" fill="#000000" fill-rule="nonzero">
                        <path d="M22.5,2.20884146 L30.1829268,2.20884146 C30.4784328,2.20884146 30.7179878,2.44839642 30.7179878,2.74390244 L30.7179878,43.902439 C30.7179878,44.197945 30.4784328,44.4375 30.1829268,44.4375 L1.09756098,44.4375 C0.802054959,44.4375 0.5625,44.197945 0.5625,43.902439 L0.5625,2.74390244 C0.5625,2.44839642 0.802054959,2.20884146 1.09756098,2.20884146 L8.7804878,2.20884146 L8.7804878,1.08384146 L1.09756098,1.08384146 C0.180734615,1.08384146 -0.5625,1.82707608 -0.5625,2.74390244 L-0.5625,43.902439 C-0.5625,44.8192654 0.180734615,45.5625 1.09756098,45.5625 L30.1829268,45.5625 C31.0997532,45.5625 31.8429878,44.8192654 31.8429878,43.902439 L31.8429878,2.74390244 C31.8429878,1.82707608 31.0997532,1.08384146 30.1829268,1.08384146 L22.5,1.08384146 L22.5,2.20884146 Z" id="Rectangle"></path>
                        <path d="M22.5,4.9527439 L27.4390244,4.9527439 C27.7345304,4.9527439 27.9740854,5.19229886 27.9740854,5.48780488 L27.9740854,40.6097561 C27.9740854,40.9052621 27.7345304,41.1448171 27.4390244,41.1448171 L3.84146341,41.1448171 C3.5459574,41.1448171 3.30640244,40.9052621 3.30640244,40.6097561 L3.30640244,5.48780488 C3.30640244,5.19229886 3.5459574,4.9527439 3.84146341,4.9527439 L8.7804878,4.9527439 L8.7804878,3.8277439 L3.84146341,3.8277439 C2.92463705,3.8277439 2.18140244,4.57097852 2.18140244,5.48780488 L2.18140244,40.6097561 C2.18140244,41.5265825 2.92463705,42.2698171 3.84146341,42.2698171 L27.4390244,42.2698171 C28.3558508,42.2698171 29.0990854,41.5265825 29.0990854,40.6097561 L29.0990854,5.48780488 C29.0990854,4.57097852 28.3558508,3.8277439 27.4390244,3.8277439 L22.5,3.8277439 L22.5,4.9527439 Z" id="Rectangle-Copy"></path>
                        <path d="M9.9054878,0.5625 C9.59482763,0.5625 9.3429878,0.814339828 9.3429878,1.125 L9.3429878,4.36280488 C9.3429878,4.67346505 9.59482763,4.92530488 9.9054878,4.92530488 L21.375,4.92530488 C21.6856602,4.92530488 21.9375,4.67346505 21.9375,4.36280488 L21.9375,1.125 C21.9375,0.814339828 21.6856602,0.5625 21.375,0.5625 L9.9054878,0.5625 Z M9.9054878,-0.5625 L21.375,-0.5625 C22.3069805,-0.5625 23.0625,0.193019485 23.0625,1.125 L23.0625,4.36280488 C23.0625,5.29478539 22.3069805,6.05030488 21.375,6.05030488 L9.9054878,6.05030488 C8.97350729,6.05030488 8.2179878,5.29478539 8.2179878,4.36280488 L8.2179878,1.125 C8.2179878,0.193019485 8.97350729,-0.5625 9.9054878,-0.5625 Z" id="Rectangle-34"></path>
                        <path d="M11.5243902,3.30640244 L19.7560976,3.30640244 C20.0667577,3.30640244 20.3185976,3.05456261 20.3185976,2.74390244 C20.3185976,2.43324227 20.0667577,2.18140244 19.7560976,2.18140244 L11.5243902,2.18140244 C11.2137301,2.18140244 10.9618902,2.43324227 10.9618902,2.74390244 C10.9618902,3.05456261 11.2137301,3.30640244 11.5243902,3.30640244 Z" id="Line"></path>
                    </g>
                    <g id="mortarboard" transform="translate(7.134146, 12.073171)" fill="#000000" fill-rule="nonzero">
                        <path d="M0.177878118,3.27753679 L8.40958544,0.533634355 C8.70430355,0.435394983 8.86358104,0.116839998 8.76534167,-0.177878118 C8.6671023,-0.472596235 8.34854732,-0.631873727 8.0538292,-0.533634355 L-0.177878118,2.21026808 C-0.472596235,2.30850746 -0.631873727,2.62706244 -0.533634355,2.92178056 C-0.435394983,3.21649867 -0.116839998,3.37577617 0.177878118,3.27753679 Z M8.40958544,4.95417052 L0.177878118,2.21026808 C-0.116839998,2.11202871 -0.435394983,2.2713062 -0.533634355,2.56602432 C-0.631873727,2.86074244 -0.472596235,3.17929742 -0.177878118,3.27753679 L8.0538292,6.02143923 C8.34854732,6.11967861 8.6671023,5.96040111 8.76534167,5.665683 C8.86358104,5.37096488 8.70430355,5.0524099 8.40958544,4.95417052 Z M16.2855365,2.21026808 L8.0538292,4.95417052 C7.75911108,5.0524099 7.59983359,5.37096488 7.69807296,5.665683 C7.79631233,5.96040111 8.11486732,6.11967861 8.40958544,6.02143923 L16.6412928,3.27753679 C16.9360109,3.17929742 17.0952884,2.86074244 16.997049,2.56602432 C16.8988096,2.2713062 16.5802546,2.11202871 16.2855365,2.21026808 Z M8.0538292,0.533634355 L16.2855365,3.27753679 C16.5802546,3.37577617 16.8988096,3.21649867 16.997049,2.92178056 C17.0952884,2.62706244 16.9360109,2.30850746 16.6412928,2.21026808 L8.40958544,-0.533634355 C8.11486732,-0.631873727 7.79631233,-0.472596235 7.69807296,-0.177878118 C7.59983359,0.116839998 7.75911108,0.435394983 8.0538292,0.533634355 Z" id="Combined-Shape"></path>
                        <path d="M0.12347561,3.08689024 L0.12347561,8.57469512 C0.12347561,8.88535529 0.375315438,9.13719512 0.68597561,9.13719512 C0.996635782,9.13719512 1.24847561,8.88535529 1.24847561,8.57469512 L1.24847561,3.08689024 C1.24847561,2.77623007 0.996635782,2.52439024 0.68597561,2.52439024 C0.375315438,2.52439024 0.12347561,2.77623007 0.12347561,3.08689024 Z" id="Line-2"></path>
                        <path d="M11.6615854,7.66920732 C10.701582,7.66920732 9.67521899,8.08458941 8.57469512,8.89447208 C7.47417126,8.08458941 6.44780828,7.66920732 5.48780488,7.66920732 C4.79673802,7.66920732 4.11837348,7.88389123 3.45432373,8.30352102 L3.98893765,3.49199578 L2.87081845,3.36776032 L2.18484284,9.5415408 C2.12612433,10.0700073 2.76566813,10.377388 3.14165,10.0014061 C3.95884964,9.18420646 4.73884793,8.79420732 5.48780488,8.79420732 C6.25562036,8.79420732 7.17096849,9.20102871 8.22330416,10.0428972 C8.42873965,10.2072456 8.7206506,10.2072456 8.92608609,10.0428972 C9.97842175,9.20102871 10.8937699,8.79420732 11.6615854,8.79420732 C12.4105423,8.79420732 13.1905406,9.18420646 14.0077402,10.0014061 C14.4056658,10.3993316 15.076671,10.0309861 14.954593,9.48163515 L13.5826418,3.30785467 L12.4844314,3.55190143 L13.5164018,8.19576832 C12.9094711,7.84717769 12.2907933,7.66920732 11.6615854,7.66920732 Z" id="Path-8"></path>
                    </g>
                </g>
                <g id="name-/-location" transform="translate(22.000000, 19.000000)">
                    <text id="Due-by-Jan-15,-2017" font-family="Roboto-Regular, Roboto" font-size="13" font-weight="normal" fill="#484848" fill-opacity="0.5">
                        <tspan x="12" y="33">Due by Jan 15, 2017</tspan>
                    </text>
                    <text id="Explore-career-optio" font-family="Roboto-Regular, Roboto" font-size="14" font-weight="normal" fill="#000000">
                        <tspan x="0" y="15">Explore career options</tspan>
                    </text>
                    <g id="ic_today_48px" transform="translate(0.000000, 23.000000)" fill="#484848" fill-opacity="0.5" fill-rule="nonzero">
                        <path d="M8,1 L7.5,1 L7.5,0 L6.5,0 L6.5,1 L2.5,1 L2.5,0 L1.5,0 L1.5,1 L1,1 C0.4475,1 0.005,1.4475 0.005,2 L0,9 C0,9.5525 0.4475,10 1,10 L8,10 C8.5525,10 9,9.5525 9,9 L9,2 C9,1.4475 8.5525,1 8,1 Z M8,9 L1,9 L1,3.5 L8,3.5 L8,9 Z M2,4.5 L4.5,4.5 L4.5,7 L2,7 L2,4.5 Z" id="Shape"></path>
                    </g>
                </g>
            </g>
            <g id="Group-7" transform="translate(0.000000, 80.000000)">
                <g id="Group-2">
                    <g id="Rectangle-4-Copy-2">
                        <use fill="black" fill-opacity="1" filter="url(#filter-4)" xlink:href="#path-3"></use>
                        <use fill="#FFFFFF" fill-rule="evenodd" xlink:href="#path-3"></use>
                    </g>
                    <g id="name-/-location-copy" transform="translate(20.000000, 19.000000)">
                        <text id="Due-by-May-31,-2018" font-family="Roboto-Regular, Roboto" font-size="13" font-weight="normal" fill="#484848" fill-opacity="0.5">
                            <tspan x="12" y="33">Due by May 31, 2018</tspan>
                        </text>
                        <text id="Add-your-highschool" font-family="Roboto-Regular, Roboto" font-size="14" font-weight="normal" fill="#000000">
                            <tspan x="0" y="15">Add your highschool</tspan>
                        </text>
                        <g id="ic_today_48px" transform="translate(0.000000, 23.000000)" fill="#484848" fill-opacity="0.5" fill-rule="nonzero">
                            <path d="M8,1 L7.5,1 L7.5,0 L6.5,0 L6.5,1 L2.5,1 L2.5,0 L1.5,0 L1.5,1 L1,1 C0.4475,1 0.005,1.4475 0.005,2 L0,9 C0,9.5525 0.4475,10 1,10 L8,10 C8.5525,10 9,9.5525 9,9 L9,2 C9,1.4475 8.5525,1 8,1 Z M8,9 L1,9 L1,3.5 L8,3.5 L8,9 Z M2,4.5 L4.5,4.5 L4.5,7 L2,7 L2,4.5 Z" id="Shape"></path>
                        </g>
                    </g>
                </g>
                <g id="general" transform="translate(313.000000, 15.000000)">
                    <g id="bg" transform="translate(6.036585, 12.621951)" fill="#3692CC" fill-opacity="0.5">
                        <g id="Group-2" transform="translate(2.743902, 3.841463)">
                            <path d="M0.548780488,0 L0,5.76219512 C0.914634146,4.84756098 1.82926829,4.3902439 2.74390244,4.3902439 C3.65853659,4.3902439 4.6875,4.84756098 5.83079268,5.76219512 C6.97408537,4.84756098 8.00304878,4.3902439 8.91768293,4.3902439 C9.83231707,4.3902439 10.7469512,4.84756098 11.6615854,5.76219512 L10.4268293,0 L5.48780488,1.64634146 L0.548780488,0 Z" id="Path-8"></path>
                        </g>
                        <polygon id="Path-10" points="0 2.74390244 8.23170732 0 16.4634146 2.74390244 8.23170732 5.48780488"></polygon>
                    </g>
                    <g id="clipboard" fill="#000000" fill-rule="nonzero">
                        <path d="M22.5,2.20884146 L30.1829268,2.20884146 C30.4784328,2.20884146 30.7179878,2.44839642 30.7179878,2.74390244 L30.7179878,43.902439 C30.7179878,44.197945 30.4784328,44.4375 30.1829268,44.4375 L1.09756098,44.4375 C0.802054959,44.4375 0.5625,44.197945 0.5625,43.902439 L0.5625,2.74390244 C0.5625,2.44839642 0.802054959,2.20884146 1.09756098,2.20884146 L8.7804878,2.20884146 L8.7804878,1.08384146 L1.09756098,1.08384146 C0.180734615,1.08384146 -0.5625,1.82707608 -0.5625,2.74390244 L-0.5625,43.902439 C-0.5625,44.8192654 0.180734615,45.5625 1.09756098,45.5625 L30.1829268,45.5625 C31.0997532,45.5625 31.8429878,44.8192654 31.8429878,43.902439 L31.8429878,2.74390244 C31.8429878,1.82707608 31.0997532,1.08384146 30.1829268,1.08384146 L22.5,1.08384146 L22.5,2.20884146 Z" id="Rectangle"></path>
                        <path d="M22.5,4.9527439 L27.4390244,4.9527439 C27.7345304,4.9527439 27.9740854,5.19229886 27.9740854,5.48780488 L27.9740854,40.6097561 C27.9740854,40.9052621 27.7345304,41.1448171 27.4390244,41.1448171 L3.84146341,41.1448171 C3.5459574,41.1448171 3.30640244,40.9052621 3.30640244,40.6097561 L3.30640244,5.48780488 C3.30640244,5.19229886 3.5459574,4.9527439 3.84146341,4.9527439 L8.7804878,4.9527439 L8.7804878,3.8277439 L3.84146341,3.8277439 C2.92463705,3.8277439 2.18140244,4.57097852 2.18140244,5.48780488 L2.18140244,40.6097561 C2.18140244,41.5265825 2.92463705,42.2698171 3.84146341,42.2698171 L27.4390244,42.2698171 C28.3558508,42.2698171 29.0990854,41.5265825 29.0990854,40.6097561 L29.0990854,5.48780488 C29.0990854,4.57097852 28.3558508,3.8277439 27.4390244,3.8277439 L22.5,3.8277439 L22.5,4.9527439 Z" id="Rectangle-Copy"></path>
                        <path d="M9.9054878,0.5625 C9.59482763,0.5625 9.3429878,0.814339828 9.3429878,1.125 L9.3429878,4.36280488 C9.3429878,4.67346505 9.59482763,4.92530488 9.9054878,4.92530488 L21.375,4.92530488 C21.6856602,4.92530488 21.9375,4.67346505 21.9375,4.36280488 L21.9375,1.125 C21.9375,0.814339828 21.6856602,0.5625 21.375,0.5625 L9.9054878,0.5625 Z M9.9054878,-0.5625 L21.375,-0.5625 C22.3069805,-0.5625 23.0625,0.193019485 23.0625,1.125 L23.0625,4.36280488 C23.0625,5.29478539 22.3069805,6.05030488 21.375,6.05030488 L9.9054878,6.05030488 C8.97350729,6.05030488 8.2179878,5.29478539 8.2179878,4.36280488 L8.2179878,1.125 C8.2179878,0.193019485 8.97350729,-0.5625 9.9054878,-0.5625 Z" id="Rectangle-34"></path>
                        <path d="M11.5243902,3.30640244 L19.7560976,3.30640244 C20.0667577,3.30640244 20.3185976,3.05456261 20.3185976,2.74390244 C20.3185976,2.43324227 20.0667577,2.18140244 19.7560976,2.18140244 L11.5243902,2.18140244 C11.2137301,2.18140244 10.9618902,2.43324227 10.9618902,2.74390244 C10.9618902,3.05456261 11.2137301,3.30640244 11.5243902,3.30640244 Z" id="Line"></path>
                    </g>
                    <g id="mortarboard" transform="translate(7.134146, 12.073171)" fill="#000000" fill-rule="nonzero">
                        <path d="M0.177878118,3.27753679 L8.40958544,0.533634355 C8.70430355,0.435394983 8.86358104,0.116839998 8.76534167,-0.177878118 C8.6671023,-0.472596235 8.34854732,-0.631873727 8.0538292,-0.533634355 L-0.177878118,2.21026808 C-0.472596235,2.30850746 -0.631873727,2.62706244 -0.533634355,2.92178056 C-0.435394983,3.21649867 -0.116839998,3.37577617 0.177878118,3.27753679 Z M8.40958544,4.95417052 L0.177878118,2.21026808 C-0.116839998,2.11202871 -0.435394983,2.2713062 -0.533634355,2.56602432 C-0.631873727,2.86074244 -0.472596235,3.17929742 -0.177878118,3.27753679 L8.0538292,6.02143923 C8.34854732,6.11967861 8.6671023,5.96040111 8.76534167,5.665683 C8.86358104,5.37096488 8.70430355,5.0524099 8.40958544,4.95417052 Z M16.2855365,2.21026808 L8.0538292,4.95417052 C7.75911108,5.0524099 7.59983359,5.37096488 7.69807296,5.665683 C7.79631233,5.96040111 8.11486732,6.11967861 8.40958544,6.02143923 L16.6412928,3.27753679 C16.9360109,3.17929742 17.0952884,2.86074244 16.997049,2.56602432 C16.8988096,2.2713062 16.5802546,2.11202871 16.2855365,2.21026808 Z M8.0538292,0.533634355 L16.2855365,3.27753679 C16.5802546,3.37577617 16.8988096,3.21649867 16.997049,2.92178056 C17.0952884,2.62706244 16.9360109,2.30850746 16.6412928,2.21026808 L8.40958544,-0.533634355 C8.11486732,-0.631873727 7.79631233,-0.472596235 7.69807296,-0.177878118 C7.59983359,0.116839998 7.75911108,0.435394983 8.0538292,0.533634355 Z" id="Combined-Shape"></path>
                        <path d="M0.12347561,3.08689024 L0.12347561,8.57469512 C0.12347561,8.88535529 0.375315438,9.13719512 0.68597561,9.13719512 C0.996635782,9.13719512 1.24847561,8.88535529 1.24847561,8.57469512 L1.24847561,3.08689024 C1.24847561,2.77623007 0.996635782,2.52439024 0.68597561,2.52439024 C0.375315438,2.52439024 0.12347561,2.77623007 0.12347561,3.08689024 Z" id="Line-2"></path>
                        <path d="M11.6615854,7.66920732 C10.701582,7.66920732 9.67521899,8.08458941 8.57469512,8.89447208 C7.47417126,8.08458941 6.44780828,7.66920732 5.48780488,7.66920732 C4.79673802,7.66920732 4.11837348,7.88389123 3.45432373,8.30352102 L3.98893765,3.49199578 L2.87081845,3.36776032 L2.18484284,9.5415408 C2.12612433,10.0700073 2.76566813,10.377388 3.14165,10.0014061 C3.95884964,9.18420646 4.73884793,8.79420732 5.48780488,8.79420732 C6.25562036,8.79420732 7.17096849,9.20102871 8.22330416,10.0428972 C8.42873965,10.2072456 8.7206506,10.2072456 8.92608609,10.0428972 C9.97842175,9.20102871 10.8937699,8.79420732 11.6615854,8.79420732 C12.4105423,8.79420732 13.1905406,9.18420646 14.0077402,10.0014061 C14.4056658,10.3993316 15.076671,10.0309861 14.954593,9.48163515 L13.5826418,3.30785467 L12.4844314,3.55190143 L13.5164018,8.19576832 C12.9094711,7.84717769 12.2907933,7.66920732 11.6615854,7.66920732 Z" id="Path-8"></path>
                    </g>
                </g>
            </g>
            <g id="Group-6" transform="translate(0.000000, 160.000000)">
                <g id="Rectangle-4-Copy-3">
                    <use fill="black" fill-opacity="1" filter="url(#filter-6)" xlink:href="#path-5"></use>
                    <use fill="#FFFFFF" fill-rule="evenodd" xlink:href="#path-5"></use>
                </g>
                <g id="name-/-location-copy-2" transform="translate(20.000000, 19.000000)">
                    <text id="Due-by-Jul-30,-2017" font-family="Roboto-Regular, Roboto" font-size="13" font-weight="normal" fill="#484848" fill-opacity="0.5">
                        <tspan x="12" y="33">Due by Jul 30, 2017</tspan>
                    </text>
                    <text id="Create-academic-goal" font-family="Roboto-Regular, Roboto" font-size="14" font-weight="normal" fill="#000000">
                        <tspan x="0" y="15">Create academic goals</tspan>
                    </text>
                    <g id="ic_today_48px" transform="translate(0.000000, 23.000000)" fill="#484848" fill-opacity="0.5" fill-rule="nonzero">
                        <path d="M8,1 L7.5,1 L7.5,0 L6.5,0 L6.5,1 L2.5,1 L2.5,0 L1.5,0 L1.5,1 L1,1 C0.4475,1 0.005,1.4475 0.005,2 L0,9 C0,9.5525 0.4475,10 1,10 L8,10 C8.5525,10 9,9.5525 9,9 L9,2 C9,1.4475 8.5525,1 8,1 Z M8,9 L1,9 L1,3.5 L8,3.5 L8,9 Z M2,4.5 L4.5,4.5 L4.5,7 L2,7 L2,4.5 Z" id="Shape"></path>
                    </g>
                </g>
                <g id="general-copy" transform="translate(313.000000, 15.000000)">
                    <g id="bg" transform="translate(6.036585, 12.621951)" fill="#3692CC" fill-opacity="0.5">
                        <g id="Group-2" transform="translate(2.743902, 3.841463)">
                            <path d="M0.548780488,0 L0,5.76219512 C0.914634146,4.84756098 1.82926829,4.3902439 2.74390244,4.3902439 C3.65853659,4.3902439 4.6875,4.84756098 5.83079268,5.76219512 C6.97408537,4.84756098 8.00304878,4.3902439 8.91768293,4.3902439 C9.83231707,4.3902439 10.7469512,4.84756098 11.6615854,5.76219512 L10.4268293,0 L5.48780488,1.64634146 L0.548780488,0 Z" id="Path-8"></path>
                        </g>
                        <polygon id="Path-10" points="0 2.74390244 8.23170732 0 16.4634146 2.74390244 8.23170732 5.48780488"></polygon>
                    </g>
                    <g id="clipboard" fill="#000000" fill-rule="nonzero">
                        <path d="M22.5,2.20884146 L30.1829268,2.20884146 C30.4784328,2.20884146 30.7179878,2.44839642 30.7179878,2.74390244 L30.7179878,43.902439 C30.7179878,44.197945 30.4784328,44.4375 30.1829268,44.4375 L1.09756098,44.4375 C0.802054959,44.4375 0.5625,44.197945 0.5625,43.902439 L0.5625,2.74390244 C0.5625,2.44839642 0.802054959,2.20884146 1.09756098,2.20884146 L8.7804878,2.20884146 L8.7804878,1.08384146 L1.09756098,1.08384146 C0.180734615,1.08384146 -0.5625,1.82707608 -0.5625,2.74390244 L-0.5625,43.902439 C-0.5625,44.8192654 0.180734615,45.5625 1.09756098,45.5625 L30.1829268,45.5625 C31.0997532,45.5625 31.8429878,44.8192654 31.8429878,43.902439 L31.8429878,2.74390244 C31.8429878,1.82707608 31.0997532,1.08384146 30.1829268,1.08384146 L22.5,1.08384146 L22.5,2.20884146 Z" id="Rectangle"></path>
                        <path d="M22.5,4.9527439 L27.4390244,4.9527439 C27.7345304,4.9527439 27.9740854,5.19229886 27.9740854,5.48780488 L27.9740854,40.6097561 C27.9740854,40.9052621 27.7345304,41.1448171 27.4390244,41.1448171 L3.84146341,41.1448171 C3.5459574,41.1448171 3.30640244,40.9052621 3.30640244,40.6097561 L3.30640244,5.48780488 C3.30640244,5.19229886 3.5459574,4.9527439 3.84146341,4.9527439 L8.7804878,4.9527439 L8.7804878,3.8277439 L3.84146341,3.8277439 C2.92463705,3.8277439 2.18140244,4.57097852 2.18140244,5.48780488 L2.18140244,40.6097561 C2.18140244,41.5265825 2.92463705,42.2698171 3.84146341,42.2698171 L27.4390244,42.2698171 C28.3558508,42.2698171 29.0990854,41.5265825 29.0990854,40.6097561 L29.0990854,5.48780488 C29.0990854,4.57097852 28.3558508,3.8277439 27.4390244,3.8277439 L22.5,3.8277439 L22.5,4.9527439 Z" id="Rectangle-Copy"></path>
                        <path d="M9.9054878,0.5625 C9.59482763,0.5625 9.3429878,0.814339828 9.3429878,1.125 L9.3429878,4.36280488 C9.3429878,4.67346505 9.59482763,4.92530488 9.9054878,4.92530488 L21.375,4.92530488 C21.6856602,4.92530488 21.9375,4.67346505 21.9375,4.36280488 L21.9375,1.125 C21.9375,0.814339828 21.6856602,0.5625 21.375,0.5625 L9.9054878,0.5625 Z M9.9054878,-0.5625 L21.375,-0.5625 C22.3069805,-0.5625 23.0625,0.193019485 23.0625,1.125 L23.0625,4.36280488 C23.0625,5.29478539 22.3069805,6.05030488 21.375,6.05030488 L9.9054878,6.05030488 C8.97350729,6.05030488 8.2179878,5.29478539 8.2179878,4.36280488 L8.2179878,1.125 C8.2179878,0.193019485 8.97350729,-0.5625 9.9054878,-0.5625 Z" id="Rectangle-34"></path>
                        <path d="M11.5243902,3.30640244 L19.7560976,3.30640244 C20.0667577,3.30640244 20.3185976,3.05456261 20.3185976,2.74390244 C20.3185976,2.43324227 20.0667577,2.18140244 19.7560976,2.18140244 L11.5243902,2.18140244 C11.2137301,2.18140244 10.9618902,2.43324227 10.9618902,2.74390244 C10.9618902,3.05456261 11.2137301,3.30640244 11.5243902,3.30640244 Z" id="Line"></path>
                    </g>
                    <g id="mortarboard" transform="translate(7.134146, 12.073171)" fill="#000000" fill-rule="nonzero">
                        <path d="M0.177878118,3.27753679 L8.40958544,0.533634355 C8.70430355,0.435394983 8.86358104,0.116839998 8.76534167,-0.177878118 C8.6671023,-0.472596235 8.34854732,-0.631873727 8.0538292,-0.533634355 L-0.177878118,2.21026808 C-0.472596235,2.30850746 -0.631873727,2.62706244 -0.533634355,2.92178056 C-0.435394983,3.21649867 -0.116839998,3.37577617 0.177878118,3.27753679 Z M8.40958544,4.95417052 L0.177878118,2.21026808 C-0.116839998,2.11202871 -0.435394983,2.2713062 -0.533634355,2.56602432 C-0.631873727,2.86074244 -0.472596235,3.17929742 -0.177878118,3.27753679 L8.0538292,6.02143923 C8.34854732,6.11967861 8.6671023,5.96040111 8.76534167,5.665683 C8.86358104,5.37096488 8.70430355,5.0524099 8.40958544,4.95417052 Z M16.2855365,2.21026808 L8.0538292,4.95417052 C7.75911108,5.0524099 7.59983359,5.37096488 7.69807296,5.665683 C7.79631233,5.96040111 8.11486732,6.11967861 8.40958544,6.02143923 L16.6412928,3.27753679 C16.9360109,3.17929742 17.0952884,2.86074244 16.997049,2.56602432 C16.8988096,2.2713062 16.5802546,2.11202871 16.2855365,2.21026808 Z M8.0538292,0.533634355 L16.2855365,3.27753679 C16.5802546,3.37577617 16.8988096,3.21649867 16.997049,2.92178056 C17.0952884,2.62706244 16.9360109,2.30850746 16.6412928,2.21026808 L8.40958544,-0.533634355 C8.11486732,-0.631873727 7.79631233,-0.472596235 7.69807296,-0.177878118 C7.59983359,0.116839998 7.75911108,0.435394983 8.0538292,0.533634355 Z" id="Combined-Shape"></path>
                        <path d="M0.12347561,3.08689024 L0.12347561,8.57469512 C0.12347561,8.88535529 0.375315438,9.13719512 0.68597561,9.13719512 C0.996635782,9.13719512 1.24847561,8.88535529 1.24847561,8.57469512 L1.24847561,3.08689024 C1.24847561,2.77623007 0.996635782,2.52439024 0.68597561,2.52439024 C0.375315438,2.52439024 0.12347561,2.77623007 0.12347561,3.08689024 Z" id="Line-2"></path>
                        <path d="M11.6615854,7.66920732 C10.701582,7.66920732 9.67521899,8.08458941 8.57469512,8.89447208 C7.47417126,8.08458941 6.44780828,7.66920732 5.48780488,7.66920732 C4.79673802,7.66920732 4.11837348,7.88389123 3.45432373,8.30352102 L3.98893765,3.49199578 L2.87081845,3.36776032 L2.18484284,9.5415408 C2.12612433,10.0700073 2.76566813,10.377388 3.14165,10.0014061 C3.95884964,9.18420646 4.73884793,8.79420732 5.48780488,8.79420732 C6.25562036,8.79420732 7.17096849,9.20102871 8.22330416,10.0428972 C8.42873965,10.2072456 8.7206506,10.2072456 8.92608609,10.0428972 C9.97842175,9.20102871 10.8937699,8.79420732 11.6615854,8.79420732 C12.4105423,8.79420732 13.1905406,9.18420646 14.0077402,10.0014061 C14.4056658,10.3993316 15.076671,10.0309861 14.954593,9.48163515 L13.5826418,3.30785467 L12.4844314,3.55190143 L13.5164018,8.19576832 C12.9094711,7.84717769 12.2907933,7.66920732 11.6615854,7.66920732 Z" id="Path-8"></path>
                    </g>
                </g>
            </g>
            <g id="Group-3" transform="translate(0.000000, 240.000000)">
                <g id="Rectangle-4-Copy-4">
                    <use fill="black" fill-opacity="1" filter="url(#filter-8)" xlink:href="#path-7"></use>
                    <use fill="#FFFFFF" fill-rule="evenodd" xlink:href="#path-7"></use>
                </g>
                <g id="name-/-location-copy-3" transform="translate(20.000000, 19.000000)">
                    <text id="Due-by-Aug-02,-2017" font-family="Roboto-Regular, Roboto" font-size="13" font-weight="normal" fill="#484848" fill-opacity="0.5">
                        <tspan x="12" y="33">Due by Aug 02, 2017</tspan>
                    </text>
                    <text id="Understand-college-a" font-family="Roboto-Regular, Roboto" font-size="14" font-weight="normal" fill="#000000">
                        <tspan x="0" y="15">Understand college admissions factors</tspan>
                    </text>
                    <g id="ic_today_48px" transform="translate(0.000000, 23.000000)" fill="#484848" fill-opacity="0.5" fill-rule="nonzero">
                        <path d="M8,1 L7.5,1 L7.5,0 L6.5,0 L6.5,1 L2.5,1 L2.5,0 L1.5,0 L1.5,1 L1,1 C0.4475,1 0.005,1.4475 0.005,2 L0,9 C0,9.5525 0.4475,10 1,10 L8,10 C8.5525,10 9,9.5525 9,9 L9,2 C9,1.4475 8.5525,1 8,1 Z M8,9 L1,9 L1,3.5 L8,3.5 L8,9 Z M2,4.5 L4.5,4.5 L4.5,7 L2,7 L2,4.5 Z" id="Shape"></path>
                    </g>
                </g>
                <g id="general-copy-2" transform="translate(313.000000, 15.000000)">
                    <g id="bg" transform="translate(6.036585, 12.621951)" fill="#3692CC" fill-opacity="0.5">
                        <g id="Group-2" transform="translate(2.743902, 3.841463)">
                            <path d="M0.548780488,0 L0,5.76219512 C0.914634146,4.84756098 1.82926829,4.3902439 2.74390244,4.3902439 C3.65853659,4.3902439 4.6875,4.84756098 5.83079268,5.76219512 C6.97408537,4.84756098 8.00304878,4.3902439 8.91768293,4.3902439 C9.83231707,4.3902439 10.7469512,4.84756098 11.6615854,5.76219512 L10.4268293,0 L5.48780488,1.64634146 L0.548780488,0 Z" id="Path-8"></path>
                        </g>
                        <polygon id="Path-10" points="0 2.74390244 8.23170732 0 16.4634146 2.74390244 8.23170732 5.48780488"></polygon>
                    </g>
                    <g id="clipboard" fill="#000000" fill-rule="nonzero">
                        <path d="M22.5,2.20884146 L30.1829268,2.20884146 C30.4784328,2.20884146 30.7179878,2.44839642 30.7179878,2.74390244 L30.7179878,43.902439 C30.7179878,44.197945 30.4784328,44.4375 30.1829268,44.4375 L1.09756098,44.4375 C0.802054959,44.4375 0.5625,44.197945 0.5625,43.902439 L0.5625,2.74390244 C0.5625,2.44839642 0.802054959,2.20884146 1.09756098,2.20884146 L8.7804878,2.20884146 L8.7804878,1.08384146 L1.09756098,1.08384146 C0.180734615,1.08384146 -0.5625,1.82707608 -0.5625,2.74390244 L-0.5625,43.902439 C-0.5625,44.8192654 0.180734615,45.5625 1.09756098,45.5625 L30.1829268,45.5625 C31.0997532,45.5625 31.8429878,44.8192654 31.8429878,43.902439 L31.8429878,2.74390244 C31.8429878,1.82707608 31.0997532,1.08384146 30.1829268,1.08384146 L22.5,1.08384146 L22.5,2.20884146 Z" id="Rectangle"></path>
                        <path d="M22.5,4.9527439 L27.4390244,4.9527439 C27.7345304,4.9527439 27.9740854,5.19229886 27.9740854,5.48780488 L27.9740854,40.6097561 C27.9740854,40.9052621 27.7345304,41.1448171 27.4390244,41.1448171 L3.84146341,41.1448171 C3.5459574,41.1448171 3.30640244,40.9052621 3.30640244,40.6097561 L3.30640244,5.48780488 C3.30640244,5.19229886 3.5459574,4.9527439 3.84146341,4.9527439 L8.7804878,4.9527439 L8.7804878,3.8277439 L3.84146341,3.8277439 C2.92463705,3.8277439 2.18140244,4.57097852 2.18140244,5.48780488 L2.18140244,40.6097561 C2.18140244,41.5265825 2.92463705,42.2698171 3.84146341,42.2698171 L27.4390244,42.2698171 C28.3558508,42.2698171 29.0990854,41.5265825 29.0990854,40.6097561 L29.0990854,5.48780488 C29.0990854,4.57097852 28.3558508,3.8277439 27.4390244,3.8277439 L22.5,3.8277439 L22.5,4.9527439 Z" id="Rectangle-Copy"></path>
                        <path d="M9.9054878,0.5625 C9.59482763,0.5625 9.3429878,0.814339828 9.3429878,1.125 L9.3429878,4.36280488 C9.3429878,4.67346505 9.59482763,4.92530488 9.9054878,4.92530488 L21.375,4.92530488 C21.6856602,4.92530488 21.9375,4.67346505 21.9375,4.36280488 L21.9375,1.125 C21.9375,0.814339828 21.6856602,0.5625 21.375,0.5625 L9.9054878,0.5625 Z M9.9054878,-0.5625 L21.375,-0.5625 C22.3069805,-0.5625 23.0625,0.193019485 23.0625,1.125 L23.0625,4.36280488 C23.0625,5.29478539 22.3069805,6.05030488 21.375,6.05030488 L9.9054878,6.05030488 C8.97350729,6.05030488 8.2179878,5.29478539 8.2179878,4.36280488 L8.2179878,1.125 C8.2179878,0.193019485 8.97350729,-0.5625 9.9054878,-0.5625 Z" id="Rectangle-34"></path>
                        <path d="M11.5243902,3.30640244 L19.7560976,3.30640244 C20.0667577,3.30640244 20.3185976,3.05456261 20.3185976,2.74390244 C20.3185976,2.43324227 20.0667577,2.18140244 19.7560976,2.18140244 L11.5243902,2.18140244 C11.2137301,2.18140244 10.9618902,2.43324227 10.9618902,2.74390244 C10.9618902,3.05456261 11.2137301,3.30640244 11.5243902,3.30640244 Z" id="Line"></path>
                    </g>
                    <g id="mortarboard" transform="translate(7.134146, 12.073171)" fill="#000000" fill-rule="nonzero">
                        <path d="M0.177878118,3.27753679 L8.40958544,0.533634355 C8.70430355,0.435394983 8.86358104,0.116839998 8.76534167,-0.177878118 C8.6671023,-0.472596235 8.34854732,-0.631873727 8.0538292,-0.533634355 L-0.177878118,2.21026808 C-0.472596235,2.30850746 -0.631873727,2.62706244 -0.533634355,2.92178056 C-0.435394983,3.21649867 -0.116839998,3.37577617 0.177878118,3.27753679 Z M8.40958544,4.95417052 L0.177878118,2.21026808 C-0.116839998,2.11202871 -0.435394983,2.2713062 -0.533634355,2.56602432 C-0.631873727,2.86074244 -0.472596235,3.17929742 -0.177878118,3.27753679 L8.0538292,6.02143923 C8.34854732,6.11967861 8.6671023,5.96040111 8.76534167,5.665683 C8.86358104,5.37096488 8.70430355,5.0524099 8.40958544,4.95417052 Z M16.2855365,2.21026808 L8.0538292,4.95417052 C7.75911108,5.0524099 7.59983359,5.37096488 7.69807296,5.665683 C7.79631233,5.96040111 8.11486732,6.11967861 8.40958544,6.02143923 L16.6412928,3.27753679 C16.9360109,3.17929742 17.0952884,2.86074244 16.997049,2.56602432 C16.8988096,2.2713062 16.5802546,2.11202871 16.2855365,2.21026808 Z M8.0538292,0.533634355 L16.2855365,3.27753679 C16.5802546,3.37577617 16.8988096,3.21649867 16.997049,2.92178056 C17.0952884,2.62706244 16.9360109,2.30850746 16.6412928,2.21026808 L8.40958544,-0.533634355 C8.11486732,-0.631873727 7.79631233,-0.472596235 7.69807296,-0.177878118 C7.59983359,0.116839998 7.75911108,0.435394983 8.0538292,0.533634355 Z" id="Combined-Shape"></path>
                        <path d="M0.12347561,3.08689024 L0.12347561,8.57469512 C0.12347561,8.88535529 0.375315438,9.13719512 0.68597561,9.13719512 C0.996635782,9.13719512 1.24847561,8.88535529 1.24847561,8.57469512 L1.24847561,3.08689024 C1.24847561,2.77623007 0.996635782,2.52439024 0.68597561,2.52439024 C0.375315438,2.52439024 0.12347561,2.77623007 0.12347561,3.08689024 Z" id="Line-2"></path>
                        <path d="M11.6615854,7.66920732 C10.701582,7.66920732 9.67521899,8.08458941 8.57469512,8.89447208 C7.47417126,8.08458941 6.44780828,7.66920732 5.48780488,7.66920732 C4.79673802,7.66920732 4.11837348,7.88389123 3.45432373,8.30352102 L3.98893765,3.49199578 L2.87081845,3.36776032 L2.18484284,9.5415408 C2.12612433,10.0700073 2.76566813,10.377388 3.14165,10.0014061 C3.95884964,9.18420646 4.73884793,8.79420732 5.48780488,8.79420732 C6.25562036,8.79420732 7.17096849,9.20102871 8.22330416,10.0428972 C8.42873965,10.2072456 8.7206506,10.2072456 8.92608609,10.0428972 C9.97842175,9.20102871 10.8937699,8.79420732 11.6615854,8.79420732 C12.4105423,8.79420732 13.1905406,9.18420646 14.0077402,10.0014061 C14.4056658,10.3993316 15.076671,10.0309861 14.954593,9.48163515 L13.5826418,3.30785467 L12.4844314,3.55190143 L13.5164018,8.19576832 C12.9094711,7.84717769 12.2907933,7.66920732 11.6615854,7.66920732 Z" id="Path-8"></path>
                    </g>
                </g>
            </g>
            <g id="Group-4" transform="translate(0.000000, 320.000000)">
                <g id="Rectangle-4-Copy-5">
                    <use fill="black" fill-opacity="1" filter="url(#filter-10)" xlink:href="#path-9"></use>
                    <use fill="#FFFFFF" fill-rule="evenodd" xlink:href="#path-9"></use>
                </g>
                <g id="name-/-location-copy-4" transform="translate(19.000000, 19.000000)">
                    <text id="Due-by-Jul-24,-2017" font-family="Roboto-Regular, Roboto" font-size="13" font-weight="normal" fill="#484848" fill-opacity="0.5">
                        <tspan x="12" y="33">Due by Jul 24, 2017</tspan>
                    </text>
                    <text id="Understand-cumulativ" font-family="Roboto-Regular, Roboto" font-size="14" font-weight="normal" fill="#000000">
                        <tspan x="0" y="15">Understand cumulative GPA</tspan>
                    </text>
                    <g id="ic_today_48px" transform="translate(0.000000, 23.000000)" fill="#484848" fill-opacity="0.5" fill-rule="nonzero">
                        <path d="M8,1 L7.5,1 L7.5,0 L6.5,0 L6.5,1 L2.5,1 L2.5,0 L1.5,0 L1.5,1 L1,1 C0.4475,1 0.005,1.4475 0.005,2 L0,9 C0,9.5525 0.4475,10 1,10 L8,10 C8.5525,10 9,9.5525 9,9 L9,2 C9,1.4475 8.5525,1 8,1 Z M8,9 L1,9 L1,3.5 L8,3.5 L8,9 Z M2,4.5 L4.5,4.5 L4.5,7 L2,7 L2,4.5 Z" id="Shape"></path>
                    </g>
                </g>
                <g id="general-copy-3" transform="translate(313.000000, 15.000000)">
                    <g id="bg" transform="translate(6.036585, 12.621951)" fill="#3692CC" fill-opacity="0.5">
                        <g id="Group-2" transform="translate(2.743902, 3.841463)">
                            <path d="M0.548780488,0 L0,5.76219512 C0.914634146,4.84756098 1.82926829,4.3902439 2.74390244,4.3902439 C3.65853659,4.3902439 4.6875,4.84756098 5.83079268,5.76219512 C6.97408537,4.84756098 8.00304878,4.3902439 8.91768293,4.3902439 C9.83231707,4.3902439 10.7469512,4.84756098 11.6615854,5.76219512 L10.4268293,0 L5.48780488,1.64634146 L0.548780488,0 Z" id="Path-8"></path>
                        </g>
                        <polygon id="Path-10" points="0 2.74390244 8.23170732 0 16.4634146 2.74390244 8.23170732 5.48780488"></polygon>
                    </g>
                    <g id="clipboard" fill="#000000" fill-rule="nonzero">
                        <path d="M22.5,2.20884146 L30.1829268,2.20884146 C30.4784328,2.20884146 30.7179878,2.44839642 30.7179878,2.74390244 L30.7179878,43.902439 C30.7179878,44.197945 30.4784328,44.4375 30.1829268,44.4375 L1.09756098,44.4375 C0.802054959,44.4375 0.5625,44.197945 0.5625,43.902439 L0.5625,2.74390244 C0.5625,2.44839642 0.802054959,2.20884146 1.09756098,2.20884146 L8.7804878,2.20884146 L8.7804878,1.08384146 L1.09756098,1.08384146 C0.180734615,1.08384146 -0.5625,1.82707608 -0.5625,2.74390244 L-0.5625,43.902439 C-0.5625,44.8192654 0.180734615,45.5625 1.09756098,45.5625 L30.1829268,45.5625 C31.0997532,45.5625 31.8429878,44.8192654 31.8429878,43.902439 L31.8429878,2.74390244 C31.8429878,1.82707608 31.0997532,1.08384146 30.1829268,1.08384146 L22.5,1.08384146 L22.5,2.20884146 Z" id="Rectangle"></path>
                        <path d="M22.5,4.9527439 L27.4390244,4.9527439 C27.7345304,4.9527439 27.9740854,5.19229886 27.9740854,5.48780488 L27.9740854,40.6097561 C27.9740854,40.9052621 27.7345304,41.1448171 27.4390244,41.1448171 L3.84146341,41.1448171 C3.5459574,41.1448171 3.30640244,40.9052621 3.30640244,40.6097561 L3.30640244,5.48780488 C3.30640244,5.19229886 3.5459574,4.9527439 3.84146341,4.9527439 L8.7804878,4.9527439 L8.7804878,3.8277439 L3.84146341,3.8277439 C2.92463705,3.8277439 2.18140244,4.57097852 2.18140244,5.48780488 L2.18140244,40.6097561 C2.18140244,41.5265825 2.92463705,42.2698171 3.84146341,42.2698171 L27.4390244,42.2698171 C28.3558508,42.2698171 29.0990854,41.5265825 29.0990854,40.6097561 L29.0990854,5.48780488 C29.0990854,4.57097852 28.3558508,3.8277439 27.4390244,3.8277439 L22.5,3.8277439 L22.5,4.9527439 Z" id="Rectangle-Copy"></path>
                        <path d="M9.9054878,0.5625 C9.59482763,0.5625 9.3429878,0.814339828 9.3429878,1.125 L9.3429878,4.36280488 C9.3429878,4.67346505 9.59482763,4.92530488 9.9054878,4.92530488 L21.375,4.92530488 C21.6856602,4.92530488 21.9375,4.67346505 21.9375,4.36280488 L21.9375,1.125 C21.9375,0.814339828 21.6856602,0.5625 21.375,0.5625 L9.9054878,0.5625 Z M9.9054878,-0.5625 L21.375,-0.5625 C22.3069805,-0.5625 23.0625,0.193019485 23.0625,1.125 L23.0625,4.36280488 C23.0625,5.29478539 22.3069805,6.05030488 21.375,6.05030488 L9.9054878,6.05030488 C8.97350729,6.05030488 8.2179878,5.29478539 8.2179878,4.36280488 L8.2179878,1.125 C8.2179878,0.193019485 8.97350729,-0.5625 9.9054878,-0.5625 Z" id="Rectangle-34"></path>
                        <path d="M11.5243902,3.30640244 L19.7560976,3.30640244 C20.0667577,3.30640244 20.3185976,3.05456261 20.3185976,2.74390244 C20.3185976,2.43324227 20.0667577,2.18140244 19.7560976,2.18140244 L11.5243902,2.18140244 C11.2137301,2.18140244 10.9618902,2.43324227 10.9618902,2.74390244 C10.9618902,3.05456261 11.2137301,3.30640244 11.5243902,3.30640244 Z" id="Line"></path>
                    </g>
                    <g id="mortarboard" transform="translate(7.134146, 12.073171)" fill="#000000" fill-rule="nonzero">
                        <path d="M0.177878118,3.27753679 L8.40958544,0.533634355 C8.70430355,0.435394983 8.86358104,0.116839998 8.76534167,-0.177878118 C8.6671023,-0.472596235 8.34854732,-0.631873727 8.0538292,-0.533634355 L-0.177878118,2.21026808 C-0.472596235,2.30850746 -0.631873727,2.62706244 -0.533634355,2.92178056 C-0.435394983,3.21649867 -0.116839998,3.37577617 0.177878118,3.27753679 Z M8.40958544,4.95417052 L0.177878118,2.21026808 C-0.116839998,2.11202871 -0.435394983,2.2713062 -0.533634355,2.56602432 C-0.631873727,2.86074244 -0.472596235,3.17929742 -0.177878118,3.27753679 L8.0538292,6.02143923 C8.34854732,6.11967861 8.6671023,5.96040111 8.76534167,5.665683 C8.86358104,5.37096488 8.70430355,5.0524099 8.40958544,4.95417052 Z M16.2855365,2.21026808 L8.0538292,4.95417052 C7.75911108,5.0524099 7.59983359,5.37096488 7.69807296,5.665683 C7.79631233,5.96040111 8.11486732,6.11967861 8.40958544,6.02143923 L16.6412928,3.27753679 C16.9360109,3.17929742 17.0952884,2.86074244 16.997049,2.56602432 C16.8988096,2.2713062 16.5802546,2.11202871 16.2855365,2.21026808 Z M8.0538292,0.533634355 L16.2855365,3.27753679 C16.5802546,3.37577617 16.8988096,3.21649867 16.997049,2.92178056 C17.0952884,2.62706244 16.9360109,2.30850746 16.6412928,2.21026808 L8.40958544,-0.533634355 C8.11486732,-0.631873727 7.79631233,-0.472596235 7.69807296,-0.177878118 C7.59983359,0.116839998 7.75911108,0.435394983 8.0538292,0.533634355 Z" id="Combined-Shape"></path>
                        <path d="M0.12347561,3.08689024 L0.12347561,8.57469512 C0.12347561,8.88535529 0.375315438,9.13719512 0.68597561,9.13719512 C0.996635782,9.13719512 1.24847561,8.88535529 1.24847561,8.57469512 L1.24847561,3.08689024 C1.24847561,2.77623007 0.996635782,2.52439024 0.68597561,2.52439024 C0.375315438,2.52439024 0.12347561,2.77623007 0.12347561,3.08689024 Z" id="Line-2"></path>
                        <path d="M11.6615854,7.66920732 C10.701582,7.66920732 9.67521899,8.08458941 8.57469512,8.89447208 C7.47417126,8.08458941 6.44780828,7.66920732 5.48780488,7.66920732 C4.79673802,7.66920732 4.11837348,7.88389123 3.45432373,8.30352102 L3.98893765,3.49199578 L2.87081845,3.36776032 L2.18484284,9.5415408 C2.12612433,10.0700073 2.76566813,10.377388 3.14165,10.0014061 C3.95884964,9.18420646 4.73884793,8.79420732 5.48780488,8.79420732 C6.25562036,8.79420732 7.17096849,9.20102871 8.22330416,10.0428972 C8.42873965,10.2072456 8.7206506,10.2072456 8.92608609,10.0428972 C9.97842175,9.20102871 10.8937699,8.79420732 11.6615854,8.79420732 C12.4105423,8.79420732 13.1905406,9.18420646 14.0077402,10.0014061 C14.4056658,10.3993316 15.076671,10.0309861 14.954593,9.48163515 L13.5826418,3.30785467 L12.4844314,3.55190143 L13.5164018,8.19576832 C12.9094711,7.84717769 12.2907933,7.66920732 11.6615854,7.66920732 Z" id="Path-8"></path>
                    </g>
                </g>
            </g>
            <g id="Group-5" transform="translate(0.000000, 401.000000)">
                <g id="Rectangle-4-Copy-6">
                    <use fill="black" fill-opacity="1" filter="url(#filter-12)" xlink:href="#path-11"></use>
                    <use fill="#FFFFFF" fill-rule="evenodd" xlink:href="#path-11"></use>
                </g>
                <g id="name-/-location-copy-5" transform="translate(19.000000, 18.000000)">
                    <text id="Due-by-Jul-27,-2017" font-family="Roboto-Regular, Roboto" font-size="13" font-weight="normal" fill="#484848" fill-opacity="0.5">
                        <tspan x="12" y="33">Due by Jul 27, 2017</tspan>
                    </text>
                    <text id="Get-organized" font-family="Roboto-Regular, Roboto" font-size="14" font-weight="normal" fill="#000000">
                        <tspan x="0" y="15">Get organized</tspan>
                    </text>
                    <g id="ic_today_48px" transform="translate(0.000000, 23.000000)" fill="#484848" fill-opacity="0.5" fill-rule="nonzero">
                        <path d="M8,1 L7.5,1 L7.5,0 L6.5,0 L6.5,1 L2.5,1 L2.5,0 L1.5,0 L1.5,1 L1,1 C0.4475,1 0.005,1.4475 0.005,2 L0,9 C0,9.5525 0.4475,10 1,10 L8,10 C8.5525,10 9,9.5525 9,9 L9,2 C9,1.4475 8.5525,1 8,1 Z M8,9 L1,9 L1,3.5 L8,3.5 L8,9 Z M2,4.5 L4.5,4.5 L4.5,7 L2,7 L2,4.5 Z" id="Shape"></path>
                    </g>
                </g>
                <g id="general-copy-4" transform="translate(313.000000, 15.000000)">
                    <g id="bg" transform="translate(6.036585, 12.621951)" fill="#3692CC" fill-opacity="0.5">
                        <g id="Group-2" transform="translate(2.743902, 3.841463)">
                            <path d="M0.548780488,0 L0,5.76219512 C0.914634146,4.84756098 1.82926829,4.3902439 2.74390244,4.3902439 C3.65853659,4.3902439 4.6875,4.84756098 5.83079268,5.76219512 C6.97408537,4.84756098 8.00304878,4.3902439 8.91768293,4.3902439 C9.83231707,4.3902439 10.7469512,4.84756098 11.6615854,5.76219512 L10.4268293,0 L5.48780488,1.64634146 L0.548780488,0 Z" id="Path-8"></path>
                        </g>
                        <polygon id="Path-10" points="0 2.74390244 8.23170732 0 16.4634146 2.74390244 8.23170732 5.48780488"></polygon>
                    </g>
                    <g id="clipboard" fill="#000000" fill-rule="nonzero">
                        <path d="M22.5,2.20884146 L30.1829268,2.20884146 C30.4784328,2.20884146 30.7179878,2.44839642 30.7179878,2.74390244 L30.7179878,43.902439 C30.7179878,44.197945 30.4784328,44.4375 30.1829268,44.4375 L1.09756098,44.4375 C0.802054959,44.4375 0.5625,44.197945 0.5625,43.902439 L0.5625,2.74390244 C0.5625,2.44839642 0.802054959,2.20884146 1.09756098,2.20884146 L8.7804878,2.20884146 L8.7804878,1.08384146 L1.09756098,1.08384146 C0.180734615,1.08384146 -0.5625,1.82707608 -0.5625,2.74390244 L-0.5625,43.902439 C-0.5625,44.8192654 0.180734615,45.5625 1.09756098,45.5625 L30.1829268,45.5625 C31.0997532,45.5625 31.8429878,44.8192654 31.8429878,43.902439 L31.8429878,2.74390244 C31.8429878,1.82707608 31.0997532,1.08384146 30.1829268,1.08384146 L22.5,1.08384146 L22.5,2.20884146 Z" id="Rectangle"></path>
                        <path d="M22.5,4.9527439 L27.4390244,4.9527439 C27.7345304,4.9527439 27.9740854,5.19229886 27.9740854,5.48780488 L27.9740854,40.6097561 C27.9740854,40.9052621 27.7345304,41.1448171 27.4390244,41.1448171 L3.84146341,41.1448171 C3.5459574,41.1448171 3.30640244,40.9052621 3.30640244,40.6097561 L3.30640244,5.48780488 C3.30640244,5.19229886 3.5459574,4.9527439 3.84146341,4.9527439 L8.7804878,4.9527439 L8.7804878,3.8277439 L3.84146341,3.8277439 C2.92463705,3.8277439 2.18140244,4.57097852 2.18140244,5.48780488 L2.18140244,40.6097561 C2.18140244,41.5265825 2.92463705,42.2698171 3.84146341,42.2698171 L27.4390244,42.2698171 C28.3558508,42.2698171 29.0990854,41.5265825 29.0990854,40.6097561 L29.0990854,5.48780488 C29.0990854,4.57097852 28.3558508,3.8277439 27.4390244,3.8277439 L22.5,3.8277439 L22.5,4.9527439 Z" id="Rectangle-Copy"></path>
                        <path d="M9.9054878,0.5625 C9.59482763,0.5625 9.3429878,0.814339828 9.3429878,1.125 L9.3429878,4.36280488 C9.3429878,4.67346505 9.59482763,4.92530488 9.9054878,4.92530488 L21.375,4.92530488 C21.6856602,4.92530488 21.9375,4.67346505 21.9375,4.36280488 L21.9375,1.125 C21.9375,0.814339828 21.6856602,0.5625 21.375,0.5625 L9.9054878,0.5625 Z M9.9054878,-0.5625 L21.375,-0.5625 C22.3069805,-0.5625 23.0625,0.193019485 23.0625,1.125 L23.0625,4.36280488 C23.0625,5.29478539 22.3069805,6.05030488 21.375,6.05030488 L9.9054878,6.05030488 C8.97350729,6.05030488 8.2179878,5.29478539 8.2179878,4.36280488 L8.2179878,1.125 C8.2179878,0.193019485 8.97350729,-0.5625 9.9054878,-0.5625 Z" id="Rectangle-34"></path>
                        <path d="M11.5243902,3.30640244 L19.7560976,3.30640244 C20.0667577,3.30640244 20.3185976,3.05456261 20.3185976,2.74390244 C20.3185976,2.43324227 20.0667577,2.18140244 19.7560976,2.18140244 L11.5243902,2.18140244 C11.2137301,2.18140244 10.9618902,2.43324227 10.9618902,2.74390244 C10.9618902,3.05456261 11.2137301,3.30640244 11.5243902,3.30640244 Z" id="Line"></path>
                    </g>
                    <g id="mortarboard" transform="translate(7.134146, 12.073171)" fill="#000000" fill-rule="nonzero">
                        <path d="M0.177878118,3.27753679 L8.40958544,0.533634355 C8.70430355,0.435394983 8.86358104,0.116839998 8.76534167,-0.177878118 C8.6671023,-0.472596235 8.34854732,-0.631873727 8.0538292,-0.533634355 L-0.177878118,2.21026808 C-0.472596235,2.30850746 -0.631873727,2.62706244 -0.533634355,2.92178056 C-0.435394983,3.21649867 -0.116839998,3.37577617 0.177878118,3.27753679 Z M8.40958544,4.95417052 L0.177878118,2.21026808 C-0.116839998,2.11202871 -0.435394983,2.2713062 -0.533634355,2.56602432 C-0.631873727,2.86074244 -0.472596235,3.17929742 -0.177878118,3.27753679 L8.0538292,6.02143923 C8.34854732,6.11967861 8.6671023,5.96040111 8.76534167,5.665683 C8.86358104,5.37096488 8.70430355,5.0524099 8.40958544,4.95417052 Z M16.2855365,2.21026808 L8.0538292,4.95417052 C7.75911108,5.0524099 7.59983359,5.37096488 7.69807296,5.665683 C7.79631233,5.96040111 8.11486732,6.11967861 8.40958544,6.02143923 L16.6412928,3.27753679 C16.9360109,3.17929742 17.0952884,2.86074244 16.997049,2.56602432 C16.8988096,2.2713062 16.5802546,2.11202871 16.2855365,2.21026808 Z M8.0538292,0.533634355 L16.2855365,3.27753679 C16.5802546,3.37577617 16.8988096,3.21649867 16.997049,2.92178056 C17.0952884,2.62706244 16.9360109,2.30850746 16.6412928,2.21026808 L8.40958544,-0.533634355 C8.11486732,-0.631873727 7.79631233,-0.472596235 7.69807296,-0.177878118 C7.59983359,0.116839998 7.75911108,0.435394983 8.0538292,0.533634355 Z" id="Combined-Shape"></path>
                        <path d="M0.12347561,3.08689024 L0.12347561,8.57469512 C0.12347561,8.88535529 0.375315438,9.13719512 0.68597561,9.13719512 C0.996635782,9.13719512 1.24847561,8.88535529 1.24847561,8.57469512 L1.24847561,3.08689024 C1.24847561,2.77623007 0.996635782,2.52439024 0.68597561,2.52439024 C0.375315438,2.52439024 0.12347561,2.77623007 0.12347561,3.08689024 Z" id="Line-2"></path>
                        <path d="M11.6615854,7.66920732 C10.701582,7.66920732 9.67521899,8.08458941 8.57469512,8.89447208 C7.47417126,8.08458941 6.44780828,7.66920732 5.48780488,7.66920732 C4.79673802,7.66920732 4.11837348,7.88389123 3.45432373,8.30352102 L3.98893765,3.49199578 L2.87081845,3.36776032 L2.18484284,9.5415408 C2.12612433,10.0700073 2.76566813,10.377388 3.14165,10.0014061 C3.95884964,9.18420646 4.73884793,8.79420732 5.48780488,8.79420732 C6.25562036,8.79420732 7.17096849,9.20102871 8.22330416,10.0428972 C8.42873965,10.2072456 8.7206506,10.2072456 8.92608609,10.0428972 C9.97842175,9.20102871 10.8937699,8.79420732 11.6615854,8.79420732 C12.4105423,8.79420732 13.1905406,9.18420646 14.0077402,10.0014061 C14.4056658,10.3993316 15.076671,10.0309861 14.954593,9.48163515 L13.5826418,3.30785467 L12.4844314,3.55190143 L13.5164018,8.19576832 C12.9094711,7.84717769 12.2907933,7.66920732 11.6615854,7.66920732 Z" id="Path-8"></path>
                    </g>
                </g>
            </g>
        </g>
        <g id="Group-9" transform="translate(0.000000, 65.000000)">
            <g id="Bar">
                <use fill="black" fill-opacity="1" filter="url(#filter-14)" xlink:href="#path-13"></use>
                <use fill="#FAFAFA" fill-rule="evenodd" xlink:href="#path-13"></use>
            </g>
            <g id="search-bar" transform="translate(10.000000, 5.000000)" fill-opacity="0.5">
                <rect id="Rectangle-121" fill="#E1E1E1" x="0" y="0" width="355" height="29" rx="14.5"></rect>
                <g id="ic_search" transform="translate(12.000000, 10.000000)" fill="#484848" fill-rule="nonzero">
                    <path d="M8.57142857,7.54285714 L8.02628571,7.54285714 L7.83771429,7.35428571 C8.50971429,6.576 8.91428571,5.56457143 8.91428571,4.45714286 C8.91428571,1.99542857 6.91885714,0 4.45714286,0 C1.99542857,0 0,1.99542857 0,4.45714286 C0,6.91885714 1.99542857,8.91428571 4.45714286,8.91428571 C5.56457143,8.91428571 6.576,8.50971429 7.35428571,7.84114286 L7.54285714,8.02971429 L7.54285714,8.57142857 L10.9714286,11.9931429 L11.9931429,10.9714286 L8.57142857,7.54285714 Z M4.45714286,7.54285714 C2.75314286,7.54285714 1.37142857,6.16114286 1.37142857,4.45714286 C1.37142857,2.75314286 2.75314286,1.37142857 4.45714286,1.37142857 C6.16114286,1.37142857 7.54285714,2.75314286 7.54285714,4.45714286 C7.54285714,6.16114286 6.16114286,7.54285714 4.45714286,7.54285714 Z" id="Shape"></path>
                </g>
                <text id="Search" font-family="Roboto-Regular, Roboto" font-size="14" font-weight="normal" letter-spacing="-0.337647051" fill="#484848">
                    <tspan x="32.0695818" y="20">Search</tspan>
                </text>
            </g>
        </g>
        <g id="top-bar/navigation-bar/secondary">
            <g id="Group">
                <g id="Navigation-Bar">
                    <g id="Rectangle">
                        <use fill="black" fill-opacity="1" filter="url(#filter-16)" xlink:href="#path-15"></use>
                        <use fill="#FAFAFA" fill-rule="evenodd" xlink:href="#path-15"></use>
                    </g>
                    <g id="status-bar/black/100%" fill="#030303">
                        <path d="M346.493713,6.175 L366.006287,6.175 C366.82662,6.175 367.5,6.84222789 367.5,7.6652952 L367.5,13.7097048 C367.5,14.5216582 366.831242,15.2 366.006287,15.2 L346.493713,15.2 C345.67338,15.2 345,14.5327721 345,13.7097048 L345,7.6652952 C345,6.85334183 345.668758,6.175 346.493713,6.175 Z M368,9.025 L368.75,9.025 C369.167101,9.025 369.5,9.36279846 369.5,9.77949397 L369.5,11.595506 C369.5,12.0190303 369.164214,12.35 368.75,12.35 L368,12.35 L368,9.025 Z M346.508152,6.65 C345.951365,6.65 345.5,7.10728352 345.5,7.6401535 L345.5,13.7348465 C345.5,14.2816932 345.949058,14.725 346.508152,14.725 L365.991848,14.725 C366.548635,14.725 367,14.2677165 367,13.7348465 L367,7.6401535 C367,7.09330682 366.550942,6.65 365.991848,6.65 L346.508152,6.65 Z M346.506744,7.125 L365.993256,7.125 C366.269775,7.125 366.5,7.34931258 366.5,7.62601616 L366.5,13.7489838 C366.5,14.0289499 366.273123,14.25 365.993256,14.25 L346.506744,14.25 C346.230225,14.25 346,14.0256874 346,13.7489838 L346,7.62601616 C346,7.3460501 346.226877,7.125 346.506744,7.125 Z" id="Battery" fill-rule="evenodd"></path>
                        <text id="100%" font-family="Roboto-Regular, Roboto" font-size="12" font-weight="normal">
                            <tspan x="312.943359" y="15.375">100%</tspan>
                        </text>
                        <text id="9:41-AM" font-family="Roboto-Regular, Roboto" font-size="12" font-weight="normal">
                            <tspan x="165.205078" y="14.975">9:41 AM</tspan>
                        </text>
                        <path d="M54.1444208,12.7665791 L52.0225391,14.725 L49.8601652,12.7350518 C50.3778594,12.1898624 51.1390073,11.8454663 51.987563,11.8454663 C52.8523616,11.8454663 53.626374,12.2031733 54.1444208,12.7665791 Z M56.3234964,10.7553703 L55.2346215,11.7603628 C54.4356305,10.9423233 53.2768836,10.4278497 51.987563,10.4278497 C50.713648,10.4278497 49.567205,10.9301023 48.7692987,11.73117 L47.6792698,10.7280589 C48.7566264,9.67077099 50.2882723,9.01023316 51.987563,9.01023316 C53.7014387,9.01023316 55.2447794,9.68215835 56.3234964,10.7553703 Z M58.5,8.74653536 L57.4118698,9.75084059 C56.0538809,8.42224978 54.1260026,7.59261658 51.987563,7.59261658 C49.8628921,7.59261658 47.9460798,8.41160072 46.5895579,9.72523969 L45.5,8.7225621 C47.1355496,7.15250825 49.4375103,6.175 51.987563,6.175 C54.5505699,6.175 56.8629578,7.16246488 58.5,8.74653536 Z" id="Wi-Fi" fill-rule="evenodd"></path>
                        <path d="M9.25,13.3 C7.73121694,13.3 6.5,12.1303439 6.5,10.6875 C6.5,9.24465609 7.73121694,8.075 9.25,8.075 C10.7687831,8.075 12,9.24465609 12,10.6875 C12,12.1303439 10.7687831,13.3 9.25,13.3 Z M16.25,13.3 C14.7312169,13.3 13.5,12.1303439 13.5,10.6875 C13.5,9.24465609 14.7312169,8.075 16.25,8.075 C17.7687831,8.075 19,9.24465609 19,10.6875 C19,12.1303439 17.7687831,13.3 16.25,13.3 Z M23.25,13.3 C21.7312169,13.3 20.5,12.1303439 20.5,10.6875 C20.5,9.24465609 21.7312169,8.075 23.25,8.075 C24.7687831,8.075 26,9.24465609 26,10.6875 C26,12.1303439 24.7687831,13.3 23.25,13.3 Z M30.25,13.3 C28.7312169,13.3 27.5,12.1303439 27.5,10.6875 C27.5,9.24465609 28.7312169,8.075 30.25,8.075 C31.7687831,8.075 33,9.24465609 33,10.6875 C33,12.1303439 31.7687831,13.3 30.25,13.3 Z M37.25,13.3 C35.7312169,13.3 34.5,12.1303439 34.5,10.6875 C34.5,9.24465609 35.7312169,8.075 37.25,8.075 C38.7687831,8.075 40,9.24465609 40,10.6875 C40,12.1303439 38.7687831,13.3 37.25,13.3 Z" id="Mobile-Signal" fill-rule="evenodd"></path>
                    </g>
                </g>
                <g id="header,-filter,-sub" transform="translate(20.000000, 25.000000)">
                    <text id="Saved" font-family="Roboto-Regular, Roboto" font-size="16" font-weight="normal" fill="#030303">
                        <tspan x="139.882812" y="27">General</tspan>
                    </text>
                    <text id="Scholarships" font-family="Roboto-Regular, Roboto" font-size="10" font-weight="normal" fill="#484848" fill-opacity="0.5">
                        <tspan x="153.52832" y="10">Tasks</tspan>
                    </text>
                    <g id="ic_chevron_left" transform="translate(5.000000, 21.000000) rotate(-180.000000) translate(-5.000000, -21.000000) translate(0.000000, 13.000000)" fill="#000000" fill-rule="nonzero">
                        <polygon id="Shape" points="2 0 0.113333333 1.88666667 6.22666667 8 0.113333333 14.1133333 2 16 10 8"></polygon>
                    </g>
                </g>
            </g>
        </g>
        <g id="bottom-bar/tab-bar/tasks" transform="translate(0.000000, 591.000000)">
            <g id="bottom-bar,-tab-bar">
                <g id="Bar">
                    <use fill="black" fill-opacity="1" filter="url(#filter-18)" xlink:href="#path-17"></use>
                    <use fill="#FAFAFA" fill-rule="evenodd" xlink:href="#path-17"></use>
                </g>
                <g id="ic_colleges" transform="translate(232.000000, 15.000000)" fill="#000000" fill-rule="nonzero">
                    <path d="M1.9047619,8.57142857 L1.9047619,15.2380952 L4.76190476,15.2380952 L4.76190476,8.57142857 L1.9047619,8.57142857 Z M7.61904762,8.57142857 L7.61904762,15.2380952 L10.4761905,15.2380952 L10.4761905,8.57142857 L7.61904762,8.57142857 Z M-2.84217094e-14,20 L18.0952381,20 L18.0952381,17.1428571 L-2.84217094e-14,17.1428571 L-2.84217094e-14,20 Z M13.3333333,8.57142857 L13.3333333,15.2380952 L16.1904762,15.2380952 L16.1904762,8.57142857 L13.3333333,8.57142857 Z M9.04761905,0 L-2.84217094e-14,4.76190476 L-2.84217094e-14,6.66666667 L18.0952381,6.66666667 L18.0952381,4.76190476 L9.04761905,0 Z" id="Shape"></path>
                </g>
                <g id="ic_profile" transform="translate(332.000000, 15.000000)" fill="#000000">
                    <path d="M10,0 C4.5,0 0,4.5 0,10 C0,15.5 4.5,20 10,20 C15.5,20 20,15.5 20,10 C20,4.5 15.5,0 10,0 L10,0 Z M10,3 C11.7,3 13,4.3 13,6 C13,7.7 11.7,9 10,9 C8.3,9 7,7.7 7,6 C7,4.3 8.3,3 10,3 L10,3 Z M10,17.2 C7.5,17.2 5.3,15.9 4,14 C4,12 8,10.9 10,10.9 C12,10.9 16,12 16,14 C14.7,15.9 12.5,17.2 10,17.2 L10,17.2 Z" id="Shape"></path>
                </g>
                <g id="ic_tasks" transform="translate(134.000000, 15.000000)" fill="#3692CC" fill-rule="nonzero">
                    <path d="M16,2 L11.815,2 C11.405,0.84 10.305,0 9,0 C7.695,0 6.595,0.84 6.185,2 L2,2 C0.895,2 5.68434189e-14,2.895 5.68434189e-14,4 L5.68434189e-14,18 C5.68434189e-14,19.105 0.895,20 2,20 L16,20 C17.105,20 18,19.105 18,18 L18,4 C18,2.895 17.105,2 16,2 L16,2 Z M9,2 C9.55,2 10,2.445 10,3 C10,3.555 9.55,4 9,4 C8.45,4 8,3.555 8,3 C8,2.445 8.45,2 9,2 Z M11,16 L4,16 L4,14 L11,14 L11,16 Z M14,12 L4,12 L4,10 L14,10 L14,12 Z M14,8 L4,8 L4,6 L14,6 L14,8 Z" id="Shape"></path>
                </g>
                <g id="ic_home" transform="translate(29.000000, 15.000000)" fill="#000000" fill-rule="nonzero">
                    <polygon id="Shape" points="9.41176471 20 9.41176471 12.9411765 14.1176471 12.9411765 14.1176471 20 20 20 20 10.5882353 23.5294118 10.5882353 11.7647059 0 0 10.5882353 3.52941176 10.5882353 3.52941176 20"></polygon>
                </g>
            </g>
        </g>
    </g>
</svg>